<svg width="28" height="28" viewBox="0 0 28 28" fill="none" xmlns="http://www.w3.org/2000/svg">
<path d="M21.0143 0H6.2973C2.8194 0 0 2.83717 0 6.33699V21.1467C0 24.6466 2.8194 27.4837 6.2973 27.4837H21.0143C24.4922 27.4837 27.3116 24.6466 27.3116 21.1467V6.33699C27.3116 2.83717 24.4922 0 21.0143 0Z" fill="black"/>
<path d="M18.4027 4.87921C19.4294 4.88352 20.4128 5.31044 21.1388 6.06697C21.8649 6.8235 22.2745 7.84833 22.2787 8.91821V17.9028C22.2745 18.9727 21.8649 19.9975 21.1388 20.754C20.4128 21.5106 19.4294 21.9375 18.4027 21.9418H9.67941C8.6527 21.9375 7.66922 21.5106 6.94321 20.754C6.21721 19.9975 5.80752 18.9727 5.80338 17.9028V8.91821C5.80752 7.84833 6.21721 6.8235 6.94321 6.06697C7.66922 5.31044 8.6527 4.88352 9.67941 4.87921H18.4027ZM18.4027 3.00061H9.67941C6.55591 3.00061 4 5.66701 4 8.91882V17.9028C4 21.1576 6.55882 23.821 9.67941 23.821H18.4027C21.5262 23.821 24.0821 21.1546 24.0821 17.9028V8.91821C24.0821 5.66338 21.5262 3 18.4027 3V3.00061Z" fill="#FFCD0C"/>
<path d="M14.0417 9.88444C14.7141 9.88444 15.3715 10.0912 15.9306 10.4785C16.4897 10.8659 16.9255 11.4164 17.1828 12.0606C17.4402 12.7047 17.5075 13.4135 17.3763 14.0973C17.2451 14.7811 16.9213 15.4092 16.4458 15.9022C15.9703 16.3952 15.3645 16.7309 14.705 16.8669C14.0454 17.003 13.3618 16.9331 12.7405 16.6663C12.1193 16.3995 11.5882 15.9477 11.2146 15.368C10.8411 14.7883 10.6416 14.1068 10.6416 13.4096C10.6427 12.475 11.0013 11.579 11.6387 10.9182C12.2761 10.2573 13.1402 9.88557 14.0417 9.88444ZM14.0417 7.99609C13.009 7.99609 11.9995 8.31359 11.1408 8.90843C10.2822 9.50327 9.61296 10.3487 9.21777 11.3379C8.82257 12.3271 8.71918 13.4156 8.92064 14.4657C9.12211 15.5158 9.61939 16.4804 10.3496 17.2375C11.0798 17.9945 12.0102 18.5101 13.023 18.719C14.0359 18.9279 15.0857 18.8207 16.0398 18.4109C16.9938 18.0012 17.8093 17.3074 18.383 16.4171C18.9568 15.5269 19.263 14.4802 19.263 13.4096C19.263 11.9738 18.7129 10.5969 17.7337 9.58166C16.7545 8.56644 15.4264 7.99609 14.0417 7.99609Z" fill="#FFCD0C"/>
<path d="M18.8612 8.8286C19.5266 8.8286 20.0661 8.26929 20.0661 7.57934C20.0661 6.88939 19.5266 6.33008 18.8612 6.33008C18.1957 6.33008 17.6562 6.88939 17.6562 7.57934C17.6562 8.26929 18.1957 8.8286 18.8612 8.8286Z" fill="#FFCD0C"/>
</svg>
