<svg width="59" height="59" viewBox="0 0 59 59" fill="none" xmlns="http://www.w3.org/2000/svg">
<circle cx="29.3274" cy="29.3281" r="20.0095" transform="rotate(-45 29.3274 29.3281)" stroke="#0E0E0E" stroke-width="1.4561"/>
<path d="M24.8745 24.1943C25.0023 24.3213 25.1751 24.3926 25.3553 24.3926C25.5354 24.3926 25.7083 24.3213 25.8361 24.1943L28.765 21.2687V38.7165C28.765 38.8974 28.8369 39.0708 28.9648 39.1987C29.0927 39.3266 29.2661 39.3984 29.447 39.3984C29.6279 39.3984 29.8013 39.3266 29.9292 39.1987C30.0571 39.0708 30.129 38.8974 30.129 38.7165V21.2687L33.0579 24.1943C33.1884 24.306 33.3562 24.3644 33.5278 24.3578C33.6995 24.3512 33.8623 24.28 33.9837 24.1586C34.1052 24.0371 34.1763 23.8743 34.183 23.7027C34.1896 23.531 34.1312 23.3632 34.0195 23.2328L29.9278 19.141C29.8644 19.0771 29.789 19.0264 29.7059 18.9918C29.6228 18.9572 29.5336 18.9393 29.4436 18.9393C29.3536 18.9393 29.2644 18.9572 29.1813 18.9918C29.0982 19.0264 29.0228 19.0771 28.9594 19.141L24.8677 23.2328C24.7416 23.3614 24.6715 23.5348 24.6728 23.7149C24.6741 23.8951 24.7466 24.0674 24.8745 24.1943Z" fill="#0E0E0E"/>
</svg>
