<svg width="28" height="28" viewBox="0 0 28 28" fill="none" xmlns="http://www.w3.org/2000/svg">
<path d="M24.5852 0H4.10145C2.21866 0 0.6875 1.53116 0.6875 3.41395V23.8977C0.6875 25.7805 2.21866 27.3116 4.10145 27.3116H24.5852C26.468 27.3116 27.9991 25.7805 27.9991 23.8977V3.41395C27.9991 1.53116 26.468 0 24.5852 0Z" fill="black"/>
<path d="M20.1952 15.3059H16.2936V12.3046C16.2936 11.4763 16.9927 11.5543 17.8542 11.5543H19.4149V7.80273H16.2936C13.7075 7.80273 11.6116 9.81809 11.6116 12.3046V15.3059H8.49023V19.0575H11.6116V27.311H16.2936V19.0575H18.6345L20.1952 15.3059Z" fill="#FFCD0C"/>
</svg>
