<svg width="172" height="43" viewBox="0 0 172 43" fill="none" xmlns="http://www.w3.org/2000/svg">
<path d="M0 8.82314L0.0372294 17.6837L2.04762 15.45L4.09523 13.2162V8.63699V4.09501H7.44588C10.3498 4.09501 10.8338 4.16947 11.1688 4.80237C11.3922 5.28635 11.5411 10.0889 11.5411 17.8327C11.5411 32.5383 11.839 31.6448 7.07359 31.6448H4.09523V26.1348L4.058 20.6621L2.04762 22.8959L0 25.1296V30.4534V35.8145L5.50995 35.6655C10.4615 35.5538 11.1316 35.4794 12.3602 34.6976C13.1047 34.2136 14.1099 33.2084 14.5939 32.4638C15.4502 31.0863 15.4502 30.9002 15.5619 18.056C15.6736 5.13743 15.6736 5.02574 14.8173 3.35042C13.3654 0.483757 12.0251 -0.000225067 5.50995 -0.000225067H0V8.82314Z" fill="black"/>
<path d="M45.7554 2.2333C43.745 3.27572 43.0749 4.61597 42.8143 7.8177L42.6281 10.6099L41.2507 10.7216L39.8359 10.8333V12.6948V14.519H41.3251H42.8143V25.6506C42.8143 31.7934 42.7026 37.08 42.5909 37.4151C42.442 37.7501 41.958 38.1969 41.474 38.383C40.6922 38.6436 40.5805 38.9415 40.5805 40.6168V42.5527L41.8836 42.3294C43.5589 42.0688 45.2714 40.8402 46.0905 39.351C46.6489 38.3086 46.7234 36.7077 46.8351 26.3207L46.9468 14.519H48.6221H50.2602V12.6575V10.7961H48.5848H46.9095V8.63675C46.9095 6.10515 47.319 5.58394 49.2177 5.58394H50.6325V3.53632V1.4887H48.8827C47.8775 1.52594 46.5 1.82377 45.7554 2.2333Z" fill="black"/>
<path d="M57.6675 2.2333C55.6571 3.27572 54.987 4.61597 54.7264 7.8177L54.5403 10.6099L53.1628 10.7216L51.748 10.8333V12.6948V14.519H53.2372H54.7264V25.4644C54.7264 31.4956 54.5775 36.8566 54.3913 37.3406C54.2052 37.8246 53.684 38.3458 53.2745 38.4575C52.6043 38.6064 52.4926 38.9415 52.4926 40.5796V42.5527L53.7957 42.3294C55.471 42.0688 57.1835 40.8402 58.0026 39.351C58.561 38.3086 58.6355 36.7077 58.7472 26.3207L58.8589 14.519H60.5342H62.1723V12.6575V10.7961H60.497H58.8216V8.59952C58.8216 6.14238 59.1567 5.69563 61.0554 5.50948C62.3584 5.39779 62.3584 5.39779 62.4701 3.42463L62.5818 1.4887H60.7948C59.7896 1.52594 58.4121 1.82377 57.6675 2.2333Z" fill="black"/>
<path d="M66.3422 16.9027C66.4538 31.8317 66.4911 32.3529 67.2357 33.3581C68.5387 35.1451 69.8417 35.8524 72.0383 36.0386L74.0859 36.1875V34.1027C74.0859 32.0178 74.0859 32.0178 72.9318 32.0178C72.2989 32.0178 71.4798 31.8317 71.0703 31.6455C70.4002 31.2732 70.3629 30.7148 70.3629 16.3815V1.4897H68.3153H66.2305L66.3422 16.9027Z" fill="black"/>
<path d="M85.9248 2.08474C85.5153 2.45703 85.5525 13.0302 85.9248 13.0302C86.1109 13.0302 86.5949 12.5462 87.0417 11.9133C87.749 10.9826 87.8607 10.3497 87.8607 7.44577V4.09512H91.3975C95.1949 4.09512 96.7958 4.57911 97.5404 5.91936C97.7637 6.40335 97.9127 11.2804 97.9127 19.0613C97.9127 31.1981 97.8754 31.5332 97.1308 32.3522C95.9767 33.5808 94.8598 33.8786 91.1741 33.8786H87.8607V26.3583V18.838L86.7438 19.9176L85.627 20.9973V28.4059V35.7773L91.1369 35.6657C97.2798 35.554 97.9127 35.3306 99.3646 32.7245C100.109 31.4215 100.146 30.8258 100.146 18.7263C100.146 6.2172 100.146 6.06828 99.2901 4.83971C97.7637 2.53149 96.4607 2.04751 91.0252 1.93582C88.3819 1.86136 86.0737 1.93582 85.9248 2.08474Z" fill="black"/>
<path d="M104.615 5.5846V7.81836H105.732H106.849V5.5846V3.35083H105.732H104.615V5.5846Z" fill="black"/>
<path d="M130.303 5.5846V7.81836H131.42H132.536V5.5846V3.35083H131.42H130.303V5.5846Z" fill="black"/>
<path d="M166.191 3.83456C166.08 4.1324 166.042 10.7965 166.117 18.6519C166.229 31.6077 166.303 33.0969 166.899 33.9904C167.755 35.2934 168.872 36.0008 170.622 36.2986C171.962 36.5592 171.999 36.5592 171.999 35.4051C171.999 34.3999 171.85 34.251 171.068 34.251C170.547 34.251 169.691 33.8415 169.207 33.3202L168.276 32.4267V17.87V3.35058H167.345C166.824 3.35058 166.303 3.57396 166.191 3.83456Z" fill="black"/>
<path d="M139.982 9.08354V12.2853H137.934C135.998 12.2853 135.887 12.3225 135.887 13.216C135.887 14.1095 135.998 14.1467 137.934 14.1467H139.945L140.056 23.7891L140.168 33.4688L141.248 34.5857C142.178 35.5536 144.152 36.4844 145.306 36.4844C145.455 36.4844 145.566 35.9632 145.566 35.3675C145.566 34.5112 145.38 34.2506 144.859 34.2506C144.487 34.2506 143.742 33.9155 143.184 33.4688L142.216 32.7242V23.4169V14.1467H144.822C147.353 14.1467 147.428 14.1095 147.428 13.216C147.428 12.3225 147.353 12.2853 144.822 12.2853H142.253L142.141 9.19522C142.03 6.17964 142.03 6.14241 141.024 6.03073L139.982 5.91904V9.08354Z" fill="black"/>
<path d="M21.2207 21.4803C21.2207 33.6171 21.3324 34.2127 23.9012 35.4785C25.651 36.3348 26.7679 36.1114 29.5973 34.3989C30.7887 33.6915 31.7939 33.1331 31.8683 33.1331C31.9428 33.1331 32.0172 33.7288 32.0172 34.4733V35.7764L33.9904 35.6647L35.9263 35.553L36.038 23.1556L36.1125 10.7954H34.0648H32.0172V19.8422V28.8889L29.0389 30.4898C27.4008 31.3461 25.9116 31.9417 25.6882 31.8301C25.4649 31.6811 25.3159 27.8093 25.3159 21.1824V10.7954H23.2683H21.2207V21.4803Z" fill="black"/>
<path d="M115 12.7696C112.692 14.296 112.432 15.3012 112.432 23.38C112.432 32.0544 112.618 32.6128 115.857 33.6553C116.787 33.9159 119.096 33.0596 121.553 31.496C122.67 30.7514 123.712 30.1557 123.824 30.1557C123.936 30.1557 123.973 31.9799 123.898 34.2509C123.787 38.0483 123.712 38.3834 122.819 39.2769C122.111 40.0215 121.329 40.3193 119.766 40.4682C117.83 40.6544 117.644 40.7661 117.644 41.5479C117.644 42.3669 117.793 42.4414 119.691 42.4414C122 42.4414 123.303 41.9202 124.717 40.3938L125.648 39.3886L125.76 27.4752C125.871 15.6362 125.871 15.5245 125.015 14.3332C123.712 12.3973 122.558 11.9133 119.207 11.9133C116.75 11.9133 116.043 12.0622 115 12.7696ZM122.111 14.3332C123.675 15.1523 124.047 16.8276 123.898 22.7098L123.787 27.7358L121.441 29.2994C120.138 30.1929 118.426 31.0864 117.607 31.3098C116.341 31.7193 116.043 31.6821 115.41 31.0864C114.703 30.4535 114.665 29.9323 114.665 23.3055C114.665 15.6735 114.852 14.8916 116.676 14.1471C117.942 13.6259 120.957 13.7375 122.111 14.3332Z" fill="black"/>
<path d="M151.971 12.6577C150.444 13.5885 149.29 15.4872 149.29 17.0136C149.29 18.056 149.439 18.2421 150.184 18.2421C150.891 18.2421 151.114 17.9815 151.3 16.9391C151.747 14.5564 154.763 13.2162 157.406 14.2214C159.156 14.8915 159.714 15.9711 159.714 18.8378V21.1088L155.731 22.2629C149.29 24.1616 148.359 25.204 148.359 30.3789C148.359 33.804 148.397 33.8785 149.551 35.0326C151.449 36.9313 153.869 36.5218 158.523 33.469L159.714 32.6871V34.2135C159.714 35.6655 159.752 35.74 160.868 35.74H161.985L161.874 25.7997C161.762 14.5564 161.613 14.0352 158.895 12.6205C156.997 11.6525 153.609 11.6525 151.971 12.6577ZM159.714 26.7677V30.4534L157.927 31.5703C155.396 33.2084 152.715 34.3252 151.933 34.0646C150.779 33.6923 150.295 32.2776 150.481 29.6343C150.668 26.3954 151.412 25.6508 155.805 24.2361C157.667 23.6404 159.268 23.1564 159.454 23.1192C159.603 23.082 159.714 24.7573 159.714 26.7677Z" fill="black"/>
<path d="M104.688 22.8579L104.8 33.4682L105.916 34.6223C106.996 35.7392 109.49 36.7444 110.198 36.2977C110.421 36.186 110.57 35.6648 110.57 35.1436C110.57 34.4362 110.384 34.25 109.677 34.25C109.193 34.25 108.374 33.915 107.815 33.4682L106.847 32.7236V22.4856V12.2847H105.73H104.576L104.688 22.8579Z" fill="black"/>
<path d="M130.303 22.4123C130.303 31.8314 130.377 32.6504 131.047 33.7673C131.978 35.2937 133.132 36.0755 134.77 36.1872C135.962 36.2989 136.073 36.1872 136.185 35.2565C136.297 34.4002 136.185 34.2513 135.403 34.2513C134.919 34.2513 134.063 33.9162 133.504 33.4695L132.536 32.7249V22.4868V12.2859H131.42H130.303V22.4123Z" fill="black"/>
</svg>
