<svg width="29" height="28" viewBox="0 0 29 28" fill="none" xmlns="http://www.w3.org/2000/svg">
<path d="M24.433 0H4.57001C3.58226 0 2.63497 0.392382 1.93653 1.09083C1.23808 1.78927 0.845703 2.73656 0.845703 3.72431L0.845703 23.5873C0.845703 24.575 1.23808 25.5223 1.93653 26.2208C2.63497 26.9192 3.58226 27.3116 4.57001 27.3116H24.433C25.4207 27.3116 26.368 26.9192 27.0665 26.2208C27.7649 25.5223 28.1573 24.575 28.1573 23.5873V3.72431C28.1573 2.73656 27.7649 1.78927 27.0665 1.09083C26.368 0.392382 25.4207 0 24.433 0ZM10.1565 21.6134C10.1567 21.6891 10.1419 21.7642 10.1131 21.8342C10.0843 21.9042 10.0419 21.9679 9.9884 22.0215C9.93492 22.0751 9.87139 22.1177 9.80144 22.1467C9.73149 22.1757 9.6565 22.1907 9.58076 22.1907H7.12737C7.05151 22.1909 6.97635 22.1761 6.90622 22.1472C6.83609 22.1182 6.77237 22.0757 6.71873 22.0221C6.66508 21.9684 6.62257 21.9047 6.59363 21.8346C6.56469 21.7644 6.5499 21.6893 6.5501 21.6134V11.3281C6.5501 11.175 6.61092 11.0282 6.71918 10.9199C6.82744 10.8117 6.97427 10.7508 7.12737 10.7508H9.58076C9.73359 10.7513 9.88003 10.8123 9.98795 10.9205C10.0959 11.0287 10.1565 11.1753 10.1565 11.3281V21.6134ZM8.35329 9.77631C7.89292 9.77631 7.44288 9.6398 7.06009 9.38403C6.67731 9.12826 6.37896 8.76472 6.20278 8.33939C6.02661 7.91406 5.98051 7.44604 6.07032 6.99451C6.16014 6.54298 6.38183 6.12823 6.70736 5.80269C7.0329 5.47716 7.44765 5.25547 7.89918 5.16565C8.35071 5.07584 8.81873 5.12193 9.24406 5.29811C9.66939 5.47429 10.0329 5.77264 10.2887 6.15542C10.5445 6.53821 10.681 6.98825 10.681 7.44862C10.681 8.06596 10.4357 8.65802 9.99922 9.09455C9.56269 9.53108 8.97063 9.77631 8.35329 9.77631ZM22.9805 21.6538C22.9807 21.7235 22.9671 21.7926 22.9405 21.8571C22.9139 21.9216 22.8749 21.9802 22.8255 22.0295C22.7762 22.0788 22.7176 22.1179 22.6531 22.1445C22.5887 22.1711 22.5196 22.1847 22.4498 22.1845H19.8118C19.742 22.1847 19.6729 22.1711 19.6084 22.1445C19.5439 22.1179 19.4853 22.0788 19.436 22.0295C19.3867 21.9802 19.3476 21.9216 19.321 21.8571C19.2944 21.7926 19.2808 21.7235 19.281 21.6538V16.8354C19.281 16.1154 19.4921 13.6822 17.3987 13.6822C15.7771 13.6822 15.4466 15.3473 15.3814 16.0952V21.66C15.3814 21.7994 15.3265 21.9332 15.2287 22.0325C15.1308 22.1318 14.9978 22.1886 14.8584 22.1907H12.3104C12.2408 22.1907 12.1718 22.1769 12.1075 22.1503C12.0432 22.1236 11.9848 22.0844 11.9356 22.0351C11.8865 21.9858 11.8475 21.9273 11.821 21.8629C11.7945 21.7986 11.781 21.7296 11.7812 21.66V11.2831C11.781 11.2135 11.7945 11.1445 11.821 11.0801C11.8475 11.0157 11.8865 10.9572 11.9356 10.9079C11.9848 10.8586 12.0432 10.8195 12.1075 10.7928C12.1718 10.7661 12.2408 10.7524 12.3104 10.7524H14.8584C14.9992 10.7524 15.1342 10.8083 15.2337 10.9078C15.3332 11.0074 15.3891 11.1424 15.3891 11.2831V12.18C15.9912 11.2753 16.8835 10.5801 18.7876 10.5801C23.0054 10.5801 22.9774 14.5186 22.9774 16.6818L22.9805 21.6538Z" fill="black"/>
</svg>
