<svg width="32" height="35" viewBox="0 0 32 35" fill="none" xmlns="http://www.w3.org/2000/svg">
<path d="M26.8554 5.23745C25.1262 4.4678 22.7476 4.24526 20.1578 4.61097C17.582 4.97476 14.887 5.90947 12.5694 7.2431C10.2502 8.5744 8.08746 10.4378 6.47775 12.4819C4.85885 14.5376 3.8552 16.706 3.65181 18.5872C3.45644 20.3942 3.97938 21.9182 5.16407 22.9947C5.9326 23.6931 7.06465 23.8079 7.98156 23.2803L11.1202 21.4721C11.1212 21.4715 11.1223 21.4709 11.1233 21.4703C11.7488 21.1091 12.1784 20.496 12.302 19.7877C12.4243 19.0869 12.2314 18.3748 11.7727 17.8337C11.7593 17.8178 11.7452 17.8024 11.7306 17.7875L11.195 17.2411C11.8573 16.2772 13.4418 14.2389 15.8149 12.8867C18.1855 11.5342 20.7412 11.1814 21.9083 11.0894L22.109 11.8243C22.1147 11.8451 22.1212 11.8656 22.1283 11.8859C22.3656 12.5543 22.8844 13.0789 23.5517 13.3253C24.2274 13.5749 24.9746 13.5109 25.6023 13.1497L28.7409 11.3416C28.7419 11.341 28.743 11.3403 28.744 11.3397C29.6584 10.8118 30.1267 9.77649 29.9094 8.76234C29.5736 7.19617 28.5176 5.97725 26.8554 5.23745ZM28.217 9.12507C28.2754 9.39794 28.1363 9.69209 27.8781 9.84117C27.8779 9.84131 27.8775 9.84151 27.8772 9.84168L24.7386 11.6499C24.5578 11.7539 24.3436 11.7729 24.1511 11.7017C24.0464 11.6631 23.8608 11.5642 23.7682 11.331L23.3949 9.96362C23.2925 9.5889 22.9531 9.32833 22.5647 9.32619C22.4028 9.32533 18.5587 9.32846 14.957 11.3832C14.937 11.3947 14.9176 11.4058 14.8977 11.4173C11.3298 13.4772 9.42139 16.7856 9.34147 16.9262C9.1506 17.262 9.2054 17.6836 9.47582 17.9596L10.4682 18.9721C10.6239 19.1694 10.6161 19.38 10.5969 19.4901C10.5617 19.6918 10.4381 19.8672 10.2574 19.9715C10.2571 19.9717 10.2568 19.9719 10.2565 19.972L7.11786 21.7802C6.85947 21.9289 6.53464 21.9015 6.32791 21.7136C5.55854 21.0145 5.23705 20.0251 5.37242 18.7731C5.73203 15.4474 9.10994 11.2387 13.4091 8.75655C13.4168 8.75213 13.425 8.7474 13.4326 8.74299C17.7396 6.26457 23.0888 5.45518 26.1517 6.81844C27.304 7.33153 27.9989 8.10751 28.217 9.12507Z" fill="black"/>
<path d="M28.691 21.8488L25.9897 19.0125C25.8263 18.841 25.5999 18.744 25.3631 18.744H23.6175V17.5645C23.6175 17.0866 23.23 16.6992 22.7521 16.6992C22.2742 16.6992 21.8867 17.0866 21.8867 17.5645V18.744H19.1158V17.5645C19.1158 17.0866 18.7284 16.6992 18.2504 16.6992C17.7725 16.6992 17.3851 17.0866 17.3851 17.5645V18.744H15.6395C15.4026 18.744 15.1761 18.8411 15.0128 19.0125L12.3117 21.8488C10.1937 24.0726 9.02734 26.9886 9.02734 30.0595V33.6196C9.02734 34.0975 9.41477 34.4849 9.8927 34.4849H31.1098C31.5878 34.4849 31.9752 34.0975 31.9752 33.6196V30.0595C31.9753 26.9885 30.8089 24.0726 28.691 21.8488ZM10.7581 32.7542V30.0595C10.7581 27.435 11.7549 24.9429 13.565 23.0423L16.0104 20.4746H24.9922L27.4376 23.0423C29.2477 24.9428 30.2445 27.435 30.2445 30.0595V32.7542H10.7581Z" fill="black"/>
<path d="M20.5016 22.2636C18.0043 22.2636 15.9727 24.2953 15.9727 26.7926C15.9727 29.2899 18.0044 31.3216 20.5016 31.3216C22.9988 31.3216 25.0305 29.2899 25.0305 26.7926C25.0305 24.2953 22.9989 22.2636 20.5016 22.2636ZM20.5016 29.5908C18.9586 29.5908 17.7034 28.3355 17.7034 26.7925C17.7034 25.2496 18.9586 23.9943 20.5016 23.9943C22.0445 23.9943 23.2998 25.2496 23.2998 26.7925C23.2998 28.3355 22.0445 29.5908 20.5016 29.5908Z" fill="black"/>
</svg>
