<svg width="73" height="317" viewBox="0 0 73 317" fill="none" xmlns="http://www.w3.org/2000/svg">
<path d="M37.2892 236L36.7109 0.000350952" stroke="url(#paint0_linear_1_30)"/>
<g filter="url(#filter0_d_1_30)">
<path d="M36.4035 294.908C36.4037 294.856 36.4455 294.814 36.4974 294.814L36.5638 294.814C36.6155 294.814 36.6582 294.856 36.658 294.908L36.666 299.476C36.6658 299.527 36.624 299.57 36.5721 299.57L36.5057 299.57C36.454 299.57 36.4113 299.528 36.4115 299.476L36.4035 294.908Z" fill="#F9AA13"/>
<path d="M46.4943 295.253C46.1866 294.558 45.8703 293.874 45.5445 293.197C45.5179 293.143 45.4904 293.122 45.4619 293.135L45.4049 292.717C45.5103 292.703 45.6053 292.712 45.6898 292.745L46.6329 294.731L47.5665 296.777C47.5969 296.843 47.5988 296.911 47.5713 296.979C47.5523 297.028 47.5171 297.042 47.4668 297.024C47.4136 297.005 47.3737 296.971 47.3481 296.92L46.4943 295.253Z" fill="#F9AA13"/>
<path d="M27.363 292.782C27.3919 292.722 27.464 292.696 27.524 292.725L27.56 292.742C27.6198 292.771 27.6455 292.843 27.6163 292.903L25.6732 296.941C25.6444 297.001 25.5722 297.027 25.5122 296.997L25.4762 296.98C25.4164 296.952 25.3908 296.879 25.4199 296.819L27.363 292.782Z" fill="#F9AA13"/>
<path d="M45.4628 293.135C45.4913 293.122 45.5188 293.143 45.5454 293.197C45.8712 293.873 46.1875 294.558 46.4952 295.252L45.4628 293.135Z" fill="#565154"/>
<path d="M46.6334 294.731L45.6903 292.745C45.8784 293.025 46.0702 293.363 46.2668 293.757C46.4378 294.1 46.5603 294.424 46.6334 294.731Z" fill="#F9AA13"/>
<path d="M28.6451 245.882L29.4239 245.886L29.7506 245.884C29.7782 245.884 29.801 245.896 29.8181 245.917C29.8475 245.956 29.8855 245.987 29.9339 246.01C29.9596 246.022 29.9577 246.028 29.9301 246.029C29.8314 246.032 29.7563 246.071 29.7041 246.144C29.4913 246.445 29.2701 246.782 29.0393 247.155C29.0203 247.185 29.0098 247.22 29.0108 247.256C29.0117 247.298 29.0013 247.336 28.9794 247.371C28.8313 247.599 28.7012 247.874 28.5891 248.193C28.5834 248.209 28.572 248.22 28.5549 248.224C28.5416 248.228 28.5331 248.237 28.5293 248.25C28.4808 248.427 28.4837 248.592 28.4048 248.763C28.2842 249.023 28.2329 249.317 28.2491 249.644C28.251 249.678 28.2358 249.702 28.2044 249.715C28.1912 249.721 28.1817 249.731 28.175 249.744C28.157 249.776 28.1494 249.81 28.1522 249.847C28.1589 249.973 28.1475 250.097 28.119 250.22C28.0677 250.441 28.0639 250.668 28.0401 250.894C28.0287 250.999 27.9632 251.071 27.9623 251.18C27.9613 251.251 27.9509 251.322 27.93 251.394C27.8796 251.564 27.8578 251.732 27.8644 251.897C27.8654 251.913 27.8616 251.928 27.8549 251.943C27.8464 251.961 27.8331 251.974 27.816 251.983C27.7951 251.994 27.7809 252.015 27.779 252.038C27.7571 252.296 27.703 252.551 27.6166 252.807C27.6004 252.855 27.59 252.906 27.5852 252.958C27.5805 253.006 27.571 253.059 27.5558 253.115C27.42 253.636 27.2528 254.134 27.0534 254.607C26.9318 254.895 26.8245 255.182 26.7314 255.466C26.6269 255.786 26.5035 256.059 26.3601 256.282C26.3401 256.311 26.3306 256.345 26.3297 256.381C26.3278 256.436 26.3069 256.483 26.266 256.522C26.2394 256.548 26.2204 256.579 26.209 256.614C26.1587 256.771 26.0884 256.919 26.0001 257.059C25.9165 257.191 25.8424 257.335 25.7769 257.492C25.7304 257.605 25.6743 257.717 25.6088 257.826C25.5471 257.932 25.4853 258.046 25.4246 258.166C25.2897 258.433 25.1501 258.689 25.0048 258.932C24.8614 259.173 24.7047 259.416 24.5327 259.662C24.1415 260.224 23.7274 260.806 23.2905 261.409C23.1889 261.55 23.0797 261.683 22.9647 261.808C22.847 261.935 22.7368 262.067 22.6333 262.204C22.4785 262.41 22.317 262.61 22.1499 262.805C21.9305 263.061 21.7272 263.341 21.5411 263.644C21.3815 263.905 21.2163 264.15 21.0444 264.379C20.8696 264.612 20.7271 264.844 20.617 265.074C20.4413 265.44 20.2637 265.82 20.0851 266.213C20.0794 266.225 20.0775 266.237 20.0785 266.249C20.0794 266.264 20.0794 266.278 20.0775 266.292C20.0756 266.31 20.069 266.328 20.0585 266.345C19.8619 266.65 19.7185 266.981 19.6292 267.339C19.595 267.477 19.5362 267.587 19.4735 267.707C19.4288 267.794 19.3966 267.888 19.3766 267.989C19.3215 268.266 19.2351 268.534 19.1183 268.793C19.105 268.822 19.1012 268.853 19.1059 268.884C19.1154 268.94 19.1031 268.989 19.0689 269.032C19.0452 269.063 19.0338 269.098 19.0347 269.137C19.0395 269.255 19.0186 269.374 18.9739 269.493C18.9302 269.61 18.8989 269.724 18.8808 269.835C18.8182 270.212 18.7327 270.591 18.6235 270.972C18.6197 270.984 18.614 270.996 18.6073 271.007C18.5931 271.027 18.5855 271.049 18.5836 271.073C18.5389 271.678 18.4943 272.309 18.4487 272.967C18.4411 273.08 18.4326 273.195 18.424 273.313C18.3604 274.128 18.3917 275.025 18.518 276.006C18.8666 278.734 19.709 281.226 21.0444 283.483C21.3597 284.017 21.7215 284.541 22.129 285.056C22.5791 285.625 22.9942 286.122 23.3731 286.544C23.6248 286.827 23.8822 287.076 24.1443 287.296C24.5641 287.646 24.982 288.002 25.3989 288.364C25.6867 288.614 25.9802 288.849 26.2793 289.066C26.5785 289.284 26.8862 289.484 27.2025 289.667C27.5178 289.85 27.8255 290.022 28.1256 290.186C28.7249 290.512 29.4724 290.85 30.3699 291.2C31.198 291.525 32.1725 291.781 33.2932 291.97C33.5448 292.013 33.7927 292.058 34.0378 292.104C34.3008 292.155 34.5506 292.189 34.7862 292.207C35.752 292.282 36.7597 292.291 37.8111 292.234C38.3629 292.204 38.9099 292.129 39.4503 292.009C39.778 291.937 40.0914 291.945 40.4219 291.855C41.2187 291.641 41.8798 291.444 42.4031 291.265C42.7801 291.136 43.2806 290.938 43.9056 290.671C44.2503 290.524 44.5998 290.349 44.9522 290.148C45.2969 289.951 45.6483 289.763 46.0045 289.584C46.0805 289.546 46.1488 289.496 46.2096 289.435C46.2657 289.379 46.3302 289.331 46.4024 289.291C46.4756 289.25 46.5458 289.206 46.6114 289.155C46.6769 289.105 46.7453 289.061 46.8184 289.022C47.1404 288.852 47.4348 288.636 47.7036 288.372C47.7767 288.301 47.8536 288.241 47.9353 288.19C48.0721 288.108 48.225 288.022 48.3067 287.88C48.3342 287.833 48.3817 287.781 48.4501 287.724C48.5526 287.639 48.7578 287.425 49.0645 287.08C49.1405 286.994 49.2327 286.966 49.3048 286.874C49.491 286.638 49.6866 286.422 49.8918 286.229C50.0238 286.105 50.1425 285.97 50.2498 285.825L50.5623 285.4C50.5756 285.383 50.5917 285.371 50.6117 285.362C50.624 285.357 50.6345 285.349 50.643 285.338C52.4732 282.917 53.6651 280.222 54.2188 277.252C54.5844 275.29 54.631 273.302 54.3584 271.288C54.2815 270.721 54.1722 270.152 54.0288 269.583C53.6803 268.196 53.1988 266.8 52.5444 265.591C51.9613 264.515 51.3848 263.521 50.6117 262.576C50.17 262.035 49.7313 261.481 49.2953 260.91C47.7159 258.841 46.5401 256.581 45.7661 254.13C45.6113 253.637 45.5011 253.112 45.3701 252.59C45.2941 252.289 45.2257 251.895 45.1649 251.41C45.0462 250.463 44.899 249.634 44.7242 248.922C44.4944 247.985 44.0262 247.068 43.3205 246.172C43.255 246.089 43.1705 246.039 43.066 246.022C43.0204 246.015 43.0166 245.998 43.0536 245.971C43.0641 245.963 43.0755 245.959 43.0878 245.96C43.1201 245.963 43.141 245.949 43.1496 245.917L43.1638 245.867L44.351 245.903C44.4669 246.083 44.5865 246.256 44.709 246.423C45.0395 246.869 45.2979 247.354 45.485 247.879C45.8487 248.899 45.9636 249.865 46.1023 250.905C46.2695 252.159 46.5886 253.496 47.0435 254.68C47.7729 256.577 48.7369 258.365 49.9364 260.041C50.5917 260.957 51.4066 261.833 52.0695 262.781C54.5626 266.347 55.7374 270.313 55.5931 274.681C55.5731 275.303 55.519 275.926 55.4316 276.55C55.0935 278.969 54.3641 281.221 53.2425 283.304C52.2243 285.197 50.9042 286.889 49.282 288.381C49.1044 288.544 48.923 288.703 48.7369 288.86C48.5536 289.014 48.3798 289.174 48.2145 289.34C48.1386 289.416 48.0331 289.442 47.9818 289.534C47.9647 289.564 47.941 289.586 47.9116 289.602C47.7985 289.66 47.7245 289.701 47.6893 289.725C47.0188 290.184 46.3236 290.626 45.6046 291.051C45.4698 291.132 45.3273 291.197 45.1782 291.248C45.0785 291.282 44.9845 291.328 44.8942 291.386C44.8078 291.441 44.7157 291.492 44.6179 291.537C40.2481 293.565 35.7368 293.917 31.0841 292.595C30.5323 292.439 29.8598 292.202 29.0678 291.888C28.7914 291.778 28.5169 291.649 28.2462 291.502C28.061 291.4 27.8673 291.306 27.664 291.218C27.4788 291.137 27.2984 291.043 27.1246 290.936C26.3449 290.454 25.6496 289.984 25.039 289.529C23.8242 288.622 22.676 287.498 21.5943 286.158C20.3358 284.601 19.3377 282.807 18.5978 280.778C17.9207 278.919 17.5189 277.016 17.3926 275.069C17.2074 272.218 17.6576 269.445 18.7412 266.752C19.5134 264.833 20.5021 263.148 21.7092 261.695C22.166 261.146 22.5801 260.622 22.9514 260.123C23.9268 258.812 24.8044 257.296 25.5841 255.574C26.1416 254.344 26.5405 253.052 26.7827 251.7C26.891 251.095 26.9954 250.472 27.0952 249.831C27.249 248.848 27.4722 248.036 27.7647 247.397C27.8863 247.13 28.1798 246.626 28.6451 245.882Z" fill="#202020"/>
<path d="M45.4622 293.135C45.3226 292.949 45.3036 292.81 45.4052 292.717L45.4622 293.135Z" fill="#565154"/>
<path d="M29.422 245.886L33.6796 245.87C33.7015 245.869 33.7195 245.887 33.7195 245.909L33.7243 250.194L33.711 249.991C33.7091 249.956 33.692 249.934 33.6588 249.923C33.6255 249.912 33.5961 249.919 33.5704 249.946C33.5571 249.96 33.5391 249.969 33.5191 249.971C33.0186 250.011 32.5257 250.06 32.047 250.214C31.7878 250.296 31.5475 250.428 31.3252 250.609C30.442 251.33 29.8161 252.309 29.3621 253.339C29.2311 253.636 29.1408 253.95 29.0905 254.283C28.9965 254.907 28.8949 255.555 28.7856 256.227C28.6897 256.813 28.4399 257.562 28.0353 258.474C27.9698 258.623 27.9337 258.783 27.8596 258.927C27.7238 259.19 27.5918 259.444 27.4636 259.688C27.0144 260.546 26.5224 261.419 25.9877 262.309C25.453 263.199 24.9373 264.113 24.4406 265.054C23.9401 265.999 23.4775 267.063 23.0521 268.248C22.5686 269.591 22.2438 270.952 22.0786 272.329C22.0035 272.953 21.9703 273.584 21.9779 274.223C22.0187 277.531 22.8849 280.582 24.5783 283.377C26.2356 286.111 28.5843 288.26 31.481 289.734C32.5685 290.286 33.673 290.625 34.8858 290.968C35.1394 291.04 35.4063 291.066 35.6637 291.141C35.8432 291.193 36.0236 291.23 36.206 291.254C37.0693 291.365 37.9924 291.41 38.9754 291.388C39.4199 291.378 39.8444 291.305 40.2898 291.26C40.6517 291.223 41.004 291.159 41.3488 291.071C42.3213 290.82 43.2502 290.503 44.1344 290.118C44.8201 289.82 45.4916 289.393 46.1507 288.991C46.3796 288.851 47.1194 288.269 48.3683 287.246C48.3892 287.229 48.4035 287.206 48.4111 287.182C48.451 287.05 48.5991 287.017 48.6931 286.923C49.2487 286.364 49.679 285.875 49.9857 285.455C50.1804 285.188 50.378 284.919 50.5784 284.649C50.7674 284.393 50.9488 284.12 51.1226 283.827C52.3772 281.71 53.1683 279.452 53.4941 277.052C53.7971 274.823 53.6356 272.622 53.0686 270.42C52.5814 268.523 51.8767 266.697 50.9545 264.94C50.1633 263.432 49.3551 261.969 48.5279 260.549C48.3313 260.213 48.1432 259.884 47.9628 259.564C47.4965 258.739 47.014 257.961 46.5154 257.231C46.0415 256.536 45.6112 255.888 45.2266 255.284C44.8733 254.73 44.5162 254.008 44.1553 253.12C44.1211 253.036 44.0698 252.978 44.0005 252.944C43.3784 252.651 42.7516 252.336 42.1209 252C40.8169 251.306 39.9071 250.813 39.3904 250.522L39.3999 245.908C39.3999 245.884 39.4189 245.865 39.4427 245.865L43.1619 245.867L43.1476 245.917C43.1391 245.949 43.1182 245.963 43.0859 245.96C43.0735 245.959 43.0621 245.963 43.0517 245.97C43.0146 245.998 43.0184 246.015 43.064 246.022C43.1685 246.039 43.253 246.089 43.3186 246.172C44.0242 247.067 44.4924 247.985 44.7223 248.922C44.897 249.634 45.0442 250.463 45.163 251.41C45.2237 251.895 45.2921 252.289 45.3681 252.59C45.4992 253.112 45.6093 253.637 45.7641 254.13C46.5382 256.581 47.714 258.841 49.2934 260.91C49.7293 261.481 50.1681 262.035 50.6097 262.576C51.3828 263.521 51.9593 264.515 52.5424 265.591C53.1968 266.8 53.6783 268.196 54.0269 269.583C54.1703 270.152 54.2795 270.721 54.3564 271.288C54.629 273.302 54.5825 275.29 54.2168 277.252C53.6631 280.222 52.4712 282.917 50.6411 285.338C50.6325 285.349 50.6221 285.357 50.6097 285.362C50.5898 285.37 50.5736 285.383 50.5603 285.4L50.2479 285.824C50.1406 285.97 50.0218 286.105 49.8898 286.229C49.6847 286.422 49.489 286.637 49.3029 286.874C49.2307 286.966 49.1386 286.993 49.0626 287.08C48.7558 287.425 48.5507 287.639 48.4481 287.724C48.3797 287.781 48.3322 287.833 48.3047 287.88C48.223 288.022 48.0701 288.108 47.9334 288.19C47.8517 288.241 47.7747 288.3 47.7016 288.372C47.4328 288.636 47.1384 288.852 46.8165 289.022C46.7433 289.061 46.6749 289.105 46.6094 289.155C46.5439 289.205 46.4736 289.25 46.4005 289.291C46.3283 289.331 46.2637 289.379 46.2077 289.435C46.1469 289.496 46.0785 289.545 46.0025 289.583C45.6464 289.763 45.295 289.951 44.9502 290.148C44.5979 290.349 44.2484 290.524 43.9036 290.671C43.2787 290.938 42.7782 291.136 42.4011 291.264C41.8778 291.444 41.2168 291.641 40.42 291.855C40.0894 291.944 39.776 291.937 39.4484 292.009C38.908 292.129 38.3609 292.204 37.8091 292.234C36.7578 292.291 35.7501 292.282 34.7842 292.207C34.5487 292.189 34.2989 292.154 34.0358 292.104C33.7908 292.058 33.5429 292.013 33.2912 291.97C32.1705 291.781 31.1961 291.525 30.3679 291.2C29.4704 290.849 28.723 290.511 28.1237 290.186C27.8236 290.022 27.5158 289.849 27.2005 289.667C26.8843 289.484 26.5765 289.283 26.2774 289.066C25.9782 288.848 25.6847 288.614 25.397 288.364C24.98 288.002 24.5621 287.646 24.1424 287.296C23.8802 287.076 23.6229 286.826 23.3712 286.544C22.9922 286.122 22.5772 285.625 22.127 285.056C21.7196 284.541 21.3577 284.017 21.0424 283.483C19.7071 281.226 18.8647 278.734 18.5161 276.006C18.3898 275.025 18.3584 274.127 18.4221 273.312C18.4306 273.195 18.4392 273.08 18.4468 272.967C18.4923 272.309 18.537 271.678 18.5816 271.073C18.5835 271.049 18.5911 271.026 18.6054 271.007C18.612 270.996 18.6177 270.984 18.6215 270.971C18.7307 270.591 18.8162 270.212 18.8789 269.835C18.8969 269.723 18.9283 269.609 18.972 269.493C19.0166 269.374 19.0375 269.255 19.0328 269.136C19.0318 269.098 19.0432 269.062 19.0669 269.032C19.1011 268.989 19.1135 268.94 19.104 268.884C19.0992 268.853 19.103 268.822 19.1163 268.793C19.2332 268.533 19.3196 268.266 19.3747 267.989C19.3946 267.888 19.4269 267.794 19.4715 267.707C19.5342 267.587 19.5931 267.476 19.6273 267.339C19.7166 266.981 19.86 266.65 20.0566 266.345C20.067 266.328 20.0737 266.31 20.0756 266.292C20.0775 266.278 20.0775 266.264 20.0765 266.249C20.0756 266.237 20.0775 266.225 20.0832 266.213C20.2617 265.82 20.4393 265.44 20.615 265.073C20.7252 264.844 20.8677 264.612 21.0424 264.379C21.2143 264.149 21.3796 263.904 21.5391 263.644C21.7253 263.341 21.9285 263.061 22.1479 262.805C22.3151 262.61 22.4765 262.409 22.6313 262.203C22.7348 262.067 22.845 261.935 22.9628 261.807C23.0777 261.683 23.1869 261.55 23.2885 261.408C23.7254 260.806 24.1395 260.224 24.5308 259.662C24.7027 259.416 24.8594 259.173 25.0028 258.932C25.1481 258.688 25.2877 258.433 25.4226 258.166C25.4834 258.045 25.5451 257.931 25.6069 257.826C25.6724 257.717 25.7284 257.605 25.775 257.492C25.8405 257.335 25.9146 257.191 25.9981 257.059C26.0865 256.919 26.1568 256.771 26.2071 256.614C26.2185 256.579 26.2375 256.548 26.2641 256.522C26.3049 256.483 26.3258 256.436 26.3277 256.381C26.3287 256.344 26.3382 256.311 26.3581 256.282C26.5015 256.059 26.625 255.786 26.7294 255.466C26.8225 255.182 26.9298 254.895 27.0514 254.606C27.2509 254.133 27.418 253.636 27.5538 253.114C27.569 253.058 27.5785 253.006 27.5833 252.958C27.588 252.905 27.5985 252.855 27.6146 252.807C27.701 252.551 27.7552 252.296 27.777 252.038C27.7789 252.015 27.7932 251.994 27.814 251.983C27.8311 251.974 27.8444 251.96 27.853 251.942C27.8596 251.928 27.8634 251.913 27.8625 251.897C27.8558 251.732 27.8777 251.563 27.928 251.393C27.9489 251.322 27.9594 251.251 27.9603 251.18C27.9613 251.071 28.0268 250.998 28.0382 250.894C28.0619 250.668 28.0657 250.441 28.117 250.22C28.1455 250.097 28.1569 249.973 28.1503 249.847C28.1474 249.81 28.155 249.776 28.1731 249.744C28.1797 249.73 28.1892 249.721 28.2025 249.715C28.2338 249.702 28.249 249.678 28.2471 249.644C28.231 249.316 28.2823 249.023 28.4029 248.763C28.4817 248.592 28.4789 248.426 28.5273 248.25C28.5311 248.236 28.5397 248.228 28.5529 248.224C28.57 248.219 28.5814 248.209 28.5871 248.193C28.6992 247.874 28.8293 247.599 28.9775 247.37C28.9993 247.336 29.0098 247.298 29.0088 247.255C29.0079 247.22 29.0183 247.185 29.0373 247.155C29.2681 246.781 29.4894 246.444 29.7021 246.144C29.7544 246.071 29.8294 246.032 29.9282 246.028C29.9557 246.027 29.9576 246.022 29.932 246.009C29.8835 245.987 29.8455 245.956 29.8161 245.917C29.799 245.895 29.7762 245.884 29.7487 245.884L29.422 245.886Z" fill="#F9AA13"/>
<path d="M33.7269 250.194C33.7212 251.3 33.7174 252.408 33.7164 253.514C33.7155 254.617 33.6528 255.491 33.4002 256.465C33.0687 257.744 32.7297 259.004 32.3849 260.241C31.0819 264.915 29.7893 269.598 28.5081 274.29C28.5005 274.316 28.5147 274.345 28.5413 274.354L29.1776 274.58C29.2071 274.59 29.227 274.58 29.2375 274.55C29.3334 274.247 29.4293 273.94 29.5262 273.628C29.5423 273.574 29.5537 273.518 29.5604 273.462C29.5756 273.329 29.6535 273.2 29.6905 273.066C31.2063 267.64 32.7468 262.068 34.311 256.348C34.4677 255.774 34.5475 255.219 34.5503 254.685C34.556 253.577 34.5589 252.471 34.5589 251.368L34.6092 250.408C34.6111 250.374 34.6215 250.342 34.6396 250.315C34.6614 250.281 34.6624 250.249 34.6424 250.217C34.6225 250.182 34.631 250.159 34.67 250.148C34.7982 250.113 34.9188 250.102 35.0318 250.114C35.0603 250.117 35.0717 250.133 35.067 250.162C35.0556 250.226 35.0765 250.271 35.1306 250.297C35.1543 250.308 35.1629 250.327 35.1562 250.353C35.1382 250.414 35.1458 250.465 35.18 250.505C35.198 250.526 35.2066 250.551 35.2056 250.579C35.1933 250.911 35.1847 251.241 35.1781 251.566C35.1752 251.694 35.1876 251.92 35.2151 252.244C35.2351 252.477 35.2351 252.705 35.2161 252.928C35.2037 253.064 35.2123 253.332 35.2417 253.732C35.2417 256.02 35.2398 258.309 35.237 260.597C35.237 260.684 35.199 260.804 35.1354 260.873C34.8172 261.22 34.576 261.615 34.575 262.088C34.5741 262.605 34.4686 263.417 34.7346 263.837C34.9464 264.172 35.236 264.349 35.6036 264.368C35.9835 264.388 36.4317 264.397 36.9484 264.398C37.448 264.399 37.8564 264.286 38.1555 263.879C38.2856 263.7 38.355 263.484 38.3635 263.23C38.3806 262.744 38.3692 262.292 38.3293 261.874C38.3037 261.602 38.2002 261.353 38.0207 261.126C37.8744 260.941 37.7642 260.809 37.769 260.551C37.7823 259.754 37.7509 258.948 37.7538 258.144C37.7671 254.557 37.7709 251.125 37.7642 247.847C37.7633 247.195 37.7633 246.524 37.7661 245.835L38.4936 245.852C38.5202 245.853 38.5411 245.875 38.5411 245.9C38.5649 248.581 38.5696 251.312 38.5544 254.094C38.5487 255.066 38.6731 255.91 38.9191 256.823C39.9002 260.464 40.8946 264.168 41.9023 267.938C42.5756 270.457 43.1711 272.635 43.6897 274.474C43.7077 274.538 43.7476 274.558 43.8093 274.534L44.3526 274.321C44.4248 274.294 44.4504 274.242 44.4305 274.167C43.2043 269.616 42.0799 265.417 41.057 261.57C40.6429 260.011 40.2279 258.462 39.8119 256.923C39.5535 255.967 39.3778 255.084 39.3788 254.187C39.3797 252.969 39.3845 251.748 39.393 250.522C39.9097 250.813 40.8195 251.306 42.1235 252C42.7542 252.336 43.381 252.651 44.0031 252.944C44.0724 252.978 44.1237 253.036 44.1579 253.12C44.5188 254.008 44.8759 254.73 45.2292 255.284C45.6138 255.888 46.0441 256.536 46.518 257.231C47.0166 257.961 47.4991 258.739 47.9654 259.564C48.1458 259.884 48.3339 260.213 48.5305 260.549C49.3577 261.969 50.1659 263.432 50.9571 264.94C51.8793 266.697 52.584 268.523 53.0712 270.42C53.6382 272.622 53.7997 274.823 53.4967 277.052C53.1709 279.452 52.3798 281.71 51.1252 283.827C50.9514 284.12 50.77 284.393 50.581 284.649C50.3806 284.919 50.183 285.188 49.9883 285.455C49.6816 285.875 49.2513 286.364 48.6957 286.923C48.6017 287.017 48.4536 287.05 48.4137 287.182C48.4061 287.206 48.3918 287.229 48.3709 287.246C47.122 288.269 46.3822 288.851 46.1533 288.991C45.4942 289.394 44.8227 289.82 44.137 290.118C43.2528 290.503 42.3239 290.82 41.3514 291.071C41.0066 291.159 40.6543 291.223 40.2924 291.26C39.847 291.305 39.4225 291.378 38.978 291.388C37.995 291.41 37.0719 291.365 36.2086 291.254C36.0262 291.23 35.8458 291.193 35.6663 291.141C35.4089 291.066 35.142 291.04 34.8884 290.968C33.6756 290.625 32.5711 290.286 31.4836 289.734C28.5869 288.26 26.2382 286.111 24.5809 283.377C22.8875 280.582 22.0213 277.531 21.9805 274.223C21.9729 273.584 22.0061 272.953 22.0812 272.329C22.2464 270.952 22.5712 269.592 23.0547 268.248C23.4801 267.063 23.9427 265.999 24.4432 265.054C24.9399 264.113 25.4556 263.199 25.9903 262.309C26.525 261.419 27.017 260.546 27.4662 259.689C27.5944 259.444 27.7264 259.19 27.8622 258.927C27.9363 258.783 27.9724 258.623 28.0379 258.474C28.4425 257.562 28.6923 256.813 28.7882 256.227C28.8975 255.555 28.9991 254.908 29.0931 254.284C29.1434 253.95 29.2337 253.636 29.3647 253.34C29.8187 252.309 30.4446 251.33 31.3278 250.609C31.5501 250.428 31.7904 250.297 32.0496 250.214C32.5283 250.06 33.0212 250.011 33.5217 249.971C33.5417 249.969 33.5597 249.96 33.573 249.946C33.5987 249.92 33.6281 249.912 33.6614 249.923C33.6946 249.934 33.7117 249.956 33.7136 249.991L33.7269 250.194Z" fill="#FAC421"/>
<path d="M16.4133 290.265C16.3691 290.211 16.3758 290.132 16.4284 290.088L20.0797 287.013C20.133 286.969 20.2118 286.975 20.2564 287.028L20.2588 287.031C20.303 287.085 20.2963 287.164 20.2437 287.208L16.5924 290.283C16.5391 290.327 16.4603 290.32 16.4157 290.268L16.4133 290.265Z" fill="#F9AA13"/>
<path d="M54.4858 288.707C54.0423 288.324 53.594 287.992 53.1581 287.607C53.0716 287.53 52.9824 287.461 52.8912 287.398C52.7943 287.332 52.7117 287.246 52.6424 287.141C52.6139 287.097 52.6367 287.039 52.687 287.026C52.743 287.012 52.7972 287.02 52.8484 287.052C52.9966 287.146 53.1438 287.253 53.2891 287.373C54.2617 288.174 55.2427 288.992 56.2333 289.827C56.3065 289.888 56.3796 289.952 56.4518 290.018C56.6047 290.158 56.617 290.247 56.4898 290.284C56.4537 290.295 56.4147 290.288 56.3853 290.265C56.2894 290.192 56.1583 290.092 55.993 289.964C55.8591 289.862 55.729 289.754 55.6017 289.64C55.4374 289.494 55.2589 289.343 55.0651 289.188C54.8723 289.034 54.6786 288.873 54.4858 288.707Z" fill="#F9AA13"/>
<path d="M46.8332 280.667C47.442 280.805 47.9245 281.066 48.2797 281.452C48.6738 281.882 48.7232 282.57 48.6396 283.124C48.5969 283.408 48.4962 283.703 48.3376 284.007C47.8922 284.859 47.3869 285.626 46.8228 286.307C46.3109 286.925 45.496 287.497 44.6735 287.548C44.1113 287.583 43.5034 287.497 42.8491 287.289C42.4416 287.161 42.1301 286.962 41.9136 286.695C41.4263 286.095 41.5384 285.384 41.7929 284.702C42.057 283.994 42.4008 283.293 42.8234 282.595C43.7428 281.081 44.9727 280.248 46.8332 280.667Z" fill="#FFFEF5"/>
<path d="M56.4319 279.513C56.45 279.452 56.5146 279.417 56.5759 279.435L60.9669 280.736C61.0287 280.754 61.0629 280.818 61.0451 280.88L61.0403 280.896C61.0221 280.958 60.9575 280.993 60.8962 280.975L56.5052 279.674C56.4434 279.656 56.4092 279.591 56.427 279.53L56.4319 279.513Z" fill="#F9AA13"/>
<path d="M11.9676 280.893C11.9464 280.821 11.9872 280.746 12.0584 280.725L16.4271 279.423C16.4985 279.401 16.5735 279.442 16.5949 279.513L16.596 279.517C16.6172 279.589 16.5764 279.664 16.5052 279.685L12.1365 280.987C12.0651 281.008 11.9901 280.968 11.9687 280.896L11.9676 280.893Z" fill="#F9AA13"/>
<path d="M52.0923 276.314C51.8539 277.382 51.3315 279.664 49.8509 279.64C48.9439 279.625 48.1689 278.852 48.187 277.936C48.1974 277.428 48.4168 276.922 48.5431 276.424C48.9515 274.812 49.0778 273.299 48.999 271.687C48.9971 271.643 49.0341 271.608 49.0778 271.613C50.2773 271.754 51.342 272.182 52.2718 272.899C52.3497 272.959 52.3877 273.052 52.3858 273.179C52.3753 273.759 52.3506 274.334 52.3126 274.907C52.286 275.305 52.2129 275.774 52.0923 276.314Z" fill="#FCDC88"/>
<path d="M34.5453 273.654C34.6554 273.77 34.7637 273.885 34.8691 274.002C34.8967 274.033 34.9052 274.068 34.8967 274.107C34.8748 274.199 34.8406 274.204 34.7931 274.122C34.7067 273.972 34.5785 273.86 34.4076 273.785C34.3762 273.771 34.3506 273.778 34.3297 273.805L33.9536 274.276C33.9355 274.299 33.9042 274.305 33.8776 274.293L33.852 274.28C33.8387 274.275 33.8339 274.258 33.8415 274.245C33.9555 274.051 34.0922 273.885 34.2508 273.749C34.2926 273.713 34.2907 273.648 34.247 273.615C33.3799 272.963 32.1776 273.091 31.3399 273.724C31.1784 273.846 31.0483 273.984 30.9495 274.137C30.9429 274.148 30.9334 274.149 30.923 274.142L30.9011 274.126C30.8793 274.11 30.8726 274.08 30.8869 274.056C31.0056 273.86 31.1528 273.703 31.3275 273.587C32.3552 272.91 33.36 272.885 34.3411 273.515C34.3753 273.537 34.4095 273.537 34.4427 273.515C35.1635 273.033 35.9727 272.886 36.8683 273.072C37.839 273.274 38.5741 273.81 39.0746 274.683C39.0822 274.696 39.0803 274.711 39.0698 274.721L39.0442 274.748C39.0309 274.761 39.0195 274.759 39.009 274.743C38.5009 273.911 37.706 273.316 36.7164 273.159C35.9604 273.038 35.1844 273.129 34.5538 273.567C34.5177 273.593 34.5149 273.621 34.5453 273.654Z" fill="#565154"/>
<path d="M33.7253 250.194L33.7206 245.909C33.7206 245.887 33.7025 245.869 33.6807 245.87L29.423 245.886L28.6442 245.882C27.8018 245.837 27.364 245.425 27.3298 244.647C27.2956 243.869 27.2842 243.087 28.0269 242.687C28.0772 242.66 28.0981 242.618 28.0886 242.562C28.0402 242.256 28.0677 241.941 28.1095 241.633C28.1883 241.057 28.2026 240.484 28.1513 239.916C28.1902 239.833 28.2406 239.785 28.3023 239.771C33.7263 238.568 39.2177 238.065 44.7756 238.261L44.7642 239.469C44.7433 239.491 44.7252 239.503 44.71 239.502C41.9719 239.413 39.3725 239.477 36.9098 239.695C35.0084 239.863 33.1469 240.113 31.3244 240.447C30.3927 240.617 29.3736 240.839 28.2653 241.113C28.232 241.121 28.2159 241.142 28.2168 241.177C28.2254 241.383 28.2415 241.543 28.2672 241.655C28.384 242.167 28.4752 242.651 28.5416 243.106C28.5483 243.151 28.592 243.18 28.6357 243.169C29.6386 242.912 30.7194 242.682 31.8781 242.48C34.3512 242.047 36.7256 241.775 39.0002 241.661C40.9842 241.564 42.8314 241.541 44.5438 241.593C44.6986 241.598 44.7917 241.544 44.823 241.432L44.8468 242.544C44.8477 242.606 44.8819 242.662 44.9361 242.69C45.3758 242.927 45.5838 243.268 45.6199 243.782C45.6996 244.895 45.6626 245.763 44.3501 245.903L43.1629 245.867L39.4437 245.865C39.42 245.865 39.401 245.884 39.401 245.908L39.3915 250.522C39.3829 251.748 39.3782 252.969 39.3772 254.187C39.3763 255.084 39.552 255.966 39.8103 256.923C40.2263 258.462 40.6413 260.011 41.0554 261.57C42.0783 265.417 43.2028 269.616 44.4289 274.167C44.4488 274.242 44.4232 274.294 44.351 274.321L43.8078 274.534C43.746 274.558 43.7061 274.538 43.6881 274.474C43.1695 272.635 42.5741 270.457 41.9007 267.938C40.893 264.168 39.8986 260.464 38.9176 256.823C38.6716 255.909 38.5472 255.066 38.5529 254.094C38.5681 251.312 38.5633 248.581 38.5396 245.9C38.5396 245.875 38.5187 245.853 38.4921 245.852L37.7646 245.835C37.001 245.834 36.245 245.822 35.4975 245.8C35.4415 245.799 35.357 245.811 35.244 245.837L34.6228 245.83C34.5858 245.829 34.5668 245.848 34.5668 245.885L34.5573 251.368C34.5573 252.471 34.5544 253.577 34.5488 254.685C34.5459 255.219 34.4661 255.774 34.3094 256.348C32.7452 262.068 31.2047 267.64 29.6889 273.066C29.6519 273.2 29.574 273.329 29.5588 273.462C29.5522 273.518 29.5408 273.574 29.5246 273.628C29.4278 273.94 29.3318 274.247 29.2359 274.55C29.2255 274.58 29.2055 274.59 29.1761 274.579L28.5397 274.354C28.5132 274.345 28.4989 274.316 28.5065 274.29C29.7877 269.598 31.0803 264.915 32.3833 260.241C32.7281 259.004 33.0672 257.744 33.3986 256.465C33.6512 255.491 33.7139 254.617 33.7149 253.514C33.7158 252.408 33.7196 251.3 33.7253 250.194Z" fill="#123235"/>
<path d="M43.5622 273.466C43.5776 273.449 43.7305 273.559 43.9033 273.713C44.0762 273.866 44.2035 274.006 44.1876 274.023C44.1722 274.041 44.0193 273.931 43.8465 273.777C43.6735 273.623 43.5463 273.484 43.5622 273.466Z" fill="#FAC421"/>
<path d="M29.5178 273.355C29.5349 273.358 29.5463 273.372 29.5454 273.389C29.5454 273.407 29.5321 273.42 29.515 273.422C29.3602 273.434 29.1959 273.415 29.024 273.365C28.9717 273.35 28.9727 273.34 29.0268 273.336C29.2006 273.323 29.3649 273.33 29.5178 273.355Z" fill="#498175"/>
<path d="M49.4388 270.996C49.3305 270.961 49.2099 270.934 49.076 270.915C48.9933 270.904 48.9297 270.84 48.9192 270.758C48.7283 269.206 48.2848 267.717 47.5887 266.289C47.3351 265.771 46.9932 264.963 47.4149 264.44C47.8593 263.888 48.5954 263.954 49.1367 264.333C49.5033 264.589 49.7959 264.878 50.0152 265.2C51.0932 266.783 51.7903 268.617 52.1056 270.702C52.192 271.274 52.2842 271.819 52.381 272.338C52.3962 272.422 52.3621 272.458 52.2785 272.446C52.2338 272.439 52.1939 272.421 52.1607 272.389C51.4446 271.729 50.5661 271.334 49.6467 271.022C49.6211 271.013 49.5936 271.01 49.566 271.011C49.5223 271.015 49.4796 271.01 49.4388 270.996Z" fill="#FCDC88"/>
<path d="M57.3222 271.133C57.3136 271.083 57.3468 271.037 57.3965 271.028L61.8794 270.254C61.9293 270.245 61.9759 270.278 61.9847 270.328L61.9986 270.409C62.0072 270.458 61.974 270.505 61.9243 270.514L57.4415 271.288C57.3915 271.297 57.345 271.264 57.3361 271.214L57.3222 271.133Z" fill="#F9AA13"/>
<path d="M15.554 271.27C14.0278 271.075 12.5548 270.762 11.0846 270.553C11.0304 270.545 11.0038 270.515 11.0029 270.46L11 270.35C10.9991 270.285 11.0304 270.257 11.096 270.269L15.6063 271.054C15.6604 271.064 15.686 271.096 15.6851 271.15C15.6841 271.183 15.668 271.215 15.6367 271.243C15.6148 271.264 15.5844 271.273 15.554 271.27Z" fill="#F9AA13"/>
<path d="M35.2398 253.732L35.2436 245.836C35.3567 245.811 35.4412 245.799 35.4972 245.799C36.2447 245.822 37.0007 245.834 37.7642 245.835C37.7614 246.524 37.7614 247.195 37.7623 247.847C37.769 251.125 37.7652 254.557 37.7519 258.144C37.749 258.948 37.7804 259.754 37.7671 260.551C37.7623 260.809 37.8725 260.941 38.0188 261.125C38.1983 261.352 38.3018 261.602 38.3274 261.874C38.3673 262.292 38.3787 262.744 38.3616 263.23C38.3531 263.484 38.2838 263.7 38.1536 263.879C37.8545 264.286 37.4461 264.399 36.9465 264.398C36.4299 264.397 35.9816 264.388 35.6017 264.368C35.2341 264.349 34.9445 264.172 34.7327 263.837C34.4667 263.417 34.5722 262.605 34.5731 262.087C34.5741 261.615 34.8153 261.22 35.1335 260.873C35.1971 260.803 35.2351 260.684 35.2351 260.597C35.2379 258.308 35.2398 256.02 35.2398 253.732Z" fill="#565154"/>
<path d="M14.5464 260.738C14.5832 260.682 14.6583 260.666 14.7145 260.702L18.5979 263.214C18.6538 263.251 18.67 263.326 18.6339 263.383L18.6319 263.386C18.595 263.442 18.5199 263.458 18.4638 263.422L14.5803 260.91C14.5244 260.873 14.5082 260.798 14.5443 260.741L14.5464 260.738Z" fill="#F9AA13"/>
<path d="M54.3733 263.379C54.3343 263.319 54.3523 263.239 54.4122 263.2L58.2964 260.707C58.3564 260.669 58.4362 260.686 58.4749 260.746L58.478 260.751C58.517 260.81 58.4989 260.891 58.439 260.929L54.5549 263.423C54.4948 263.461 54.415 263.444 54.3764 263.384L54.3733 263.379Z" fill="#F9AA13"/>
<path d="M35.2412 253.732C35.2118 253.332 35.2032 253.064 35.2156 252.928C35.2346 252.705 35.2345 252.477 35.2146 252.244C35.1871 251.92 35.1747 251.694 35.1776 251.566C35.1842 251.241 35.1928 250.911 35.2051 250.579C35.2061 250.551 35.1975 250.526 35.1795 250.505C35.1453 250.465 35.1377 250.414 35.1557 250.353C35.1624 250.327 35.1538 250.308 35.1301 250.297C35.0759 250.271 35.055 250.226 35.0664 250.162C35.0712 250.133 35.0598 250.117 35.0313 250.114C34.9183 250.102 34.7977 250.113 34.6695 250.148C34.6305 250.159 34.622 250.182 34.6419 250.217C34.6619 250.249 34.6609 250.281 34.6391 250.315C34.621 250.342 34.6106 250.374 34.6087 250.408L34.5583 251.368L34.5678 245.885C34.5678 245.848 34.5868 245.829 34.6239 245.83L35.245 245.837L35.2412 253.732Z" fill="#F9AA13"/>
<path d="M44.214 244.682L37.8755 244.742C37.7862 244.743 37.7093 244.682 37.6903 244.595C37.5298 243.858 37.7871 242.978 38.7036 242.963C40.0067 242.942 41.3145 242.972 42.6052 242.925C43.1076 242.907 43.6005 242.906 44.0839 242.923C44.1998 242.927 44.2948 243.014 44.309 243.129C44.3669 243.592 44.3821 244.065 44.3546 244.547C44.3508 244.622 44.2891 244.681 44.214 244.682Z" fill="#285053"/>
<path d="M44.7655 239.47L44.8244 241.432C44.793 241.544 44.7 241.598 44.5452 241.593C42.8328 241.541 40.9855 241.564 39.0015 241.662C36.7269 241.775 34.3526 242.047 31.8794 242.48C30.7207 242.683 29.6399 242.912 28.637 243.169C28.5933 243.18 28.5496 243.151 28.543 243.106C28.4765 242.651 28.3853 242.167 28.2685 241.655C28.2429 241.543 28.2267 241.383 28.2182 241.177C28.2172 241.142 28.2334 241.121 28.2666 241.113C29.375 240.839 30.394 240.617 31.3257 240.447C33.1483 240.114 35.0098 239.863 36.9112 239.695C39.3738 239.477 41.9733 239.413 44.7114 239.502C44.7266 239.503 44.7446 239.492 44.7655 239.47Z" fill="#565154"/>
<path d="M28.1506 239.916L28.1525 237.659C30.0767 237.237 31.8128 236.92 33.36 236.711C35.1806 236.465 37.215 236.289 39.463 236.183C41.0443 236.108 42.6275 236.094 44.2107 236.139C44.4045 236.144 44.6134 236.167 44.8376 236.209L44.7749 238.261C39.217 238.065 33.7256 238.568 28.3016 239.771C28.2399 239.785 28.1896 239.833 28.1506 239.916Z" fill="#565154"/>
<path d="M28.1538 237.659L28.1063 236.474C28.1139 236.409 28.1405 236.372 28.1861 236.361C33.6224 235.158 39.091 234.656 44.591 234.857C44.6432 234.859 44.7021 234.845 44.7676 234.818C44.7971 234.805 44.8303 234.816 44.8484 234.842C44.8588 234.857 44.8645 234.878 44.8664 234.904L44.8389 236.209C44.6147 236.167 44.4058 236.144 44.212 236.139C42.6288 236.094 41.0456 236.109 39.4643 236.184C37.2162 236.289 35.1819 236.466 33.3612 236.712C31.8141 236.921 30.078 237.237 28.1538 237.659Z" fill="#123235"/>
<path d="M28.1064 236.474C28.0551 236.388 28.0342 236.278 28.0428 236.142C28.0931 235.373 28.1605 234.735 28.2432 234.23C28.2498 234.193 28.2793 234.16 28.3315 234.132C28.3192 234.15 28.3381 234.162 28.3904 234.168C28.4113 234.171 28.4322 234.17 28.4531 234.165C29.4816 233.94 30.4456 233.754 31.3469 233.607C35.4944 232.929 39.6515 232.603 43.9785 232.741C44.1637 232.787 44.3736 232.799 44.6091 232.775C44.6632 232.769 44.7107 232.813 44.7079 232.868C44.6965 233.126 44.6965 233.374 44.7079 233.611C44.7126 233.705 44.7497 233.917 44.8171 234.247C44.8617 234.461 44.8779 234.679 44.8665 234.904C44.8646 234.878 44.8589 234.857 44.8484 234.842C44.8304 234.816 44.7971 234.806 44.7677 234.818C44.7022 234.845 44.6433 234.859 44.5911 234.857C39.0911 234.656 33.6225 235.158 28.1862 236.361C28.1406 236.372 28.114 236.409 28.1064 236.474Z" fill="#565154"/>
<path d="M28.3318 234.132C28.9206 232.959 29.7934 232.047 30.7384 231.123L31.1848 230.687C32.3007 229.681 33.2657 228.905 34.0786 228.36C34.4509 228.111 34.7938 227.872 35.1072 227.644C35.5735 227.305 35.9363 227.108 36.1956 227.05C36.6885 226.941 37.1302 227.011 37.5205 227.26C38.3078 227.761 39.1607 228.349 40.0791 229.022C40.4096 229.265 41.0706 229.827 42.0622 230.709L42.3965 231.045C42.9464 231.559 43.4735 232.124 43.9787 232.741C39.6517 232.603 35.4947 232.929 31.3472 233.607C30.4459 233.754 29.4819 233.94 28.4533 234.165C28.4324 234.17 28.4115 234.171 28.3907 234.168C28.3384 234.162 28.3194 234.15 28.3318 234.132Z" fill="#123235"/>
<path d="M37.6832 228.318C37.9994 228.383 38.3271 228.537 38.6642 228.778C38.8988 228.945 38.99 229.149 38.9397 229.391C38.876 229.694 38.5997 229.755 38.3423 229.653C37.3422 229.261 36.3459 229.252 35.3553 229.628C35.0381 229.747 34.7646 229.562 34.8178 229.208C34.8529 228.973 34.9726 228.795 35.1758 228.673C35.9024 228.239 36.7382 228.121 37.6832 228.318Z" fill="#285053"/>
</g>
<defs>
<filter id="filter0_d_1_30" x="0.900004" y="223.9" width="71.2" height="92.7701" filterUnits="userSpaceOnUse" color-interpolation-filters="sRGB">
<feFlood flood-opacity="0" result="BackgroundImageFix"/>
<feColorMatrix in="SourceAlpha" type="matrix" values="0 0 0 0 0 0 0 0 0 0 0 0 0 0 0 0 0 0 127 0" result="hardAlpha"/>
<feOffset dy="7"/>
<feGaussianBlur stdDeviation="5.05"/>
<feComposite in2="hardAlpha" operator="out"/>
<feColorMatrix type="matrix" values="0 0 0 0 0.0466667 0 0 0 0 0.0466667 0 0 0 0 0.0466667 0 0 0 0.38 0"/>
<feBlend mode="normal" in2="BackgroundImageFix" result="effect1_dropShadow_1_30"/>
<feBlend mode="normal" in="SourceGraphic" in2="effect1_dropShadow_1_30" result="shape"/>
</filter>
<linearGradient id="paint0_linear_1_30" x1="37.7892" y1="235.998" x2="37.2109" y2="-0.000874184" gradientUnits="userSpaceOnUse">
<stop stop-color="white"/>
<stop offset="1" stop-color="#252525"/>
</linearGradient>
</defs>
</svg>
