<svg width="28" height="29" viewBox="0 0 28 29" fill="none" xmlns="http://www.w3.org/2000/svg">
<g clip-path="url(#clip0_1_801)">
<path d="M27.3 12.557C27.2991 12.5563 27.2985 12.5554 27.2978 12.5548L15.876 0.725488C15.3892 0.221032 14.7419 -0.0566406 14.0534 -0.0566406C13.3649 -0.0566406 12.7176 0.221032 12.2306 0.725488L0.814728 12.5488C0.810882 12.5528 0.806823 12.557 0.803192 12.561C-0.196566 13.6024 -0.194857 15.2921 0.808105 16.3309C1.26633 16.8057 1.87131 17.0805 2.51837 17.1095C2.54486 17.1121 2.57135 17.1135 2.59806 17.1135H3.05307V25.8189C3.05307 27.5418 4.40659 28.9434 6.07008 28.9434H10.5387C10.9917 28.9434 11.359 28.5629 11.359 28.0938V21.2686C11.359 20.4825 11.9766 19.8431 12.7356 19.8431H15.3712C16.1302 19.8431 16.7476 20.4825 16.7476 21.2686V28.0938C16.7476 28.5629 17.1148 28.9434 17.5679 28.9434H22.0365C23.7002 28.9434 25.0535 27.5418 25.0535 25.8189V17.1135H25.4756C26.1639 17.1135 26.8112 16.8358 27.2985 16.3311C28.3025 15.2908 28.3029 13.598 27.3 12.557ZM26.1383 15.1297C25.9612 15.3131 25.7258 15.4142 25.4756 15.4142H24.2332C23.7801 15.4142 23.4129 15.7946 23.4129 16.2639V25.8189C23.4129 26.6048 22.7955 27.2442 22.0365 27.2442H18.3882V21.2686C18.3882 19.5457 17.0349 18.1438 15.3712 18.1438H12.7356C11.0719 18.1438 9.71834 19.5457 9.71834 21.2686V27.2442H6.07008C5.31129 27.2442 4.6937 26.6048 4.6937 25.8189V16.2639C4.6937 15.7946 4.32648 15.4142 3.87339 15.4142H2.65232C2.6395 15.4134 2.6269 15.4127 2.61386 15.4125C2.36948 15.4081 2.14026 15.3076 1.96851 15.1295C1.60321 14.7512 1.60321 14.1354 1.96851 13.7568C1.96872 13.7568 1.96872 13.7566 1.96894 13.7564L1.96958 13.7557L13.391 1.92689C13.5678 1.74347 13.803 1.64258 14.0534 1.64258C14.3036 1.64258 14.5388 1.74347 14.7158 1.92689L26.1347 13.7533C26.1364 13.7551 26.1383 13.7568 26.14 13.7586C26.5034 14.1376 26.5027 14.752 26.1383 15.1297Z" fill="black"/>
</g>
<defs>
<clipPath id="clip0_1_801">
<rect width="28" height="29" fill="white"/>
</clipPath>
</defs>
</svg>
