<svg width="28" height="29" viewBox="0 0 28 29" fill="none" xmlns="http://www.w3.org/2000/svg">
<path d="M24.1818 0.176758H3.81818C2.80554 0.176758 1.83437 0.579029 1.11832 1.29508C0.402272 2.01113 0 2.98229 0 3.99494L0 24.3586C0 25.3712 0.402272 26.3424 1.11832 27.0584C1.83437 27.7745 2.80554 28.1768 3.81818 28.1768H24.1818C25.1945 28.1768 26.1656 27.7745 26.8817 27.0584C27.5977 26.3424 28 25.3712 28 24.3586V3.99494C28 2.98229 27.5977 2.01113 26.8817 1.29508C26.1656 0.579029 25.1945 0.176758 24.1818 0.176758ZM9.54545 22.3349C9.54566 22.4126 9.53055 22.4895 9.50098 22.5613C9.47142 22.6331 9.42797 22.6983 9.37314 22.7533C9.31832 22.8083 9.25318 22.8519 9.18147 22.8817C9.10975 22.9114 9.03287 22.9268 8.95523 22.9268H6.44C6.36222 22.927 6.28517 22.9118 6.21327 22.8821C6.14138 22.8525 6.07605 22.8089 6.02105 22.7539C5.96606 22.6989 5.92247 22.6336 5.8928 22.5617C5.86314 22.4898 5.84797 22.4127 5.84818 22.3349V11.7904C5.84818 11.6334 5.91053 11.4829 6.02152 11.3719C6.13251 11.2609 6.28304 11.1986 6.44 11.1986H8.95523C9.11191 11.199 9.26203 11.2615 9.37268 11.3725C9.48332 11.4834 9.54545 11.6337 9.54545 11.7904V22.3349ZM7.69682 10.1995C7.22484 10.1995 6.76346 10.0595 6.37103 9.79731C5.97859 9.53509 5.67272 9.16239 5.49211 8.72634C5.31149 8.29029 5.26423 7.81047 5.35631 7.34757C5.44839 6.88466 5.67567 6.45945 6.0094 6.12571C6.34314 5.79197 6.76835 5.56469 7.23126 5.47261C7.69417 5.38053 8.17399 5.42779 8.61004 5.60841C9.04609 5.78903 9.41879 6.09489 9.68101 6.48733C9.94322 6.87976 10.0832 7.34114 10.0832 7.81312C10.0832 8.44602 9.83176 9.05301 9.38423 9.50054C8.9367 9.94806 8.32972 10.1995 7.69682 10.1995ZM22.6927 22.3763C22.6929 22.4478 22.679 22.5187 22.6517 22.5848C22.6245 22.6509 22.5844 22.7109 22.5338 22.7615C22.4833 22.8121 22.4232 22.8521 22.3571 22.8794C22.291 22.9067 22.2201 22.9206 22.1486 22.9204H19.4441C19.3726 22.9206 19.3017 22.9067 19.2356 22.8794C19.1695 22.8521 19.1095 22.8121 19.0589 22.7615C19.0083 22.7109 18.9683 22.6509 18.941 22.5848C18.9137 22.5187 18.8998 22.4478 18.9 22.3763V17.4365C18.9 16.6983 19.1164 14.2038 16.9702 14.2038C15.3077 14.2038 14.9689 15.9108 14.902 16.6777V22.3827C14.9021 22.5256 14.8458 22.6628 14.7455 22.7646C14.6452 22.8664 14.5088 22.9247 14.3659 22.9268H11.7536C11.6823 22.9268 11.6116 22.9127 11.5457 22.8853C11.4797 22.8579 11.4199 22.8178 11.3695 22.7673C11.3191 22.7168 11.2791 22.6568 11.252 22.5908C11.2248 22.5248 11.2109 22.454 11.2111 22.3827V11.7443C11.2109 11.6729 11.2248 11.6022 11.252 11.5362C11.2791 11.4702 11.3191 11.4102 11.3695 11.3596C11.4199 11.3091 11.4797 11.269 11.5457 11.2416C11.6116 11.2143 11.6823 11.2002 11.7536 11.2002H14.3659C14.5102 11.2002 14.6486 11.2575 14.7506 11.3595C14.8527 11.4616 14.91 11.6 14.91 11.7443V12.6638C15.5273 11.7363 16.442 11.0236 18.3941 11.0236C22.7182 11.0236 22.6895 15.0613 22.6895 17.279L22.6927 22.3763Z" fill="url(#paint0_linear_90_2221)"/>
<defs>
<linearGradient id="paint0_linear_90_2221" x1="14" y1="0.176758" x2="14" y2="28.1768" gradientUnits="userSpaceOnUse">
<stop stop-color="#484848"/>
<stop offset="1" stop-color="#807138"/>
</linearGradient>
</defs>
</svg>
