<svg width="23" height="27" viewBox="0 0 23 27" fill="none" xmlns="http://www.w3.org/2000/svg">
<path d="M15.8688 17.2901C18.6535 12.9205 18.3034 13.4656 18.3836 13.3517C19.3975 11.9217 19.9333 10.2387 19.9333 8.48444C19.9333 3.83231 16.1582 0 11.5 0C6.85696 0 3.06667 3.82475 3.06667 8.48444C3.06667 10.2376 3.61376 11.9647 4.66082 13.4139L7.13112 17.2902C4.48996 17.696 0 18.9056 0 21.5689C0 22.5397 0.633675 23.9233 3.6525 25.0015C5.76043 25.7543 8.54736 26.1689 11.5 26.1689C17.0213 26.1689 23 24.6114 23 21.5689C23 18.9051 18.5153 17.6969 15.8688 17.2901ZM5.94162 12.5705C5.93318 12.5573 5.92439 12.5445 5.91519 12.5318C5.0439 11.3331 4.6 9.91254 4.6 8.48444C4.6 4.65019 7.68742 1.53333 11.5 1.53333C15.3047 1.53333 18.4 4.65157 18.4 8.48444C18.4 9.91484 17.9645 11.2872 17.1403 12.4543C17.0665 12.5517 17.4518 11.9531 11.5 21.2923L5.94162 12.5705ZM11.5 24.6356C5.4692 24.6356 1.53333 22.8629 1.53333 21.5689C1.53333 20.6992 3.5557 19.2691 8.03712 18.7117L10.8534 23.1309C10.9942 23.3519 11.238 23.4856 11.4999 23.4856C11.7619 23.4856 12.0057 23.3518 12.1465 23.1309L14.9627 18.7117C19.4443 19.2691 21.4667 20.6992 21.4667 21.5689C21.4667 22.8519 17.5662 24.6356 11.5 24.6356Z" fill="black"/>
<path d="M11.4935 4.64941C9.37979 4.64941 7.66016 6.36905 7.66016 8.48275C7.66016 10.5964 9.37979 12.3161 11.4935 12.3161C13.6072 12.3161 15.3268 10.5964 15.3268 8.48275C15.3268 6.36905 13.6072 4.64941 11.4935 4.64941ZM11.4935 10.7827C10.2253 10.7827 9.19349 9.75097 9.19349 8.48275C9.19349 7.21453 10.2253 6.18275 11.4935 6.18275C12.7617 6.18275 13.7935 7.21453 13.7935 8.48275C13.7935 9.75097 12.7617 10.7827 11.4935 10.7827Z" fill="black"/>
</svg>
