<svg width="28" height="28" viewBox="0 0 28 28" fill="none" xmlns="http://www.w3.org/2000/svg">
<path d="M21.544 0H6.45603C2.89046 0 0 2.80545 0 6.26614V20.9103C0 24.371 2.89046 27.1765 6.45603 27.1765H21.544C25.1095 27.1765 28 24.371 28 20.9103V6.26614C28 2.80545 25.1095 0 21.544 0Z" fill="url(#paint0_linear_90_2216)"/>
<path d="M18.8829 5.15312C19.9355 5.15738 20.9437 5.57953 21.688 6.3276C22.4323 7.07567 22.8523 8.08905 22.8566 9.14697V18.0311C22.8523 19.089 22.4323 20.1024 21.688 20.8505C20.9437 21.5985 19.9355 22.0207 18.8829 22.025H9.93975C8.88716 22.0207 7.87889 21.5985 7.13459 20.8505C6.39029 20.1024 5.97027 19.089 5.96603 18.0311V9.14697C5.97027 8.08905 6.39029 7.07567 7.13459 6.3276C7.87889 5.57953 8.88716 5.15738 9.93975 5.15312H18.8829ZM18.8829 3.29552H9.93975C6.73752 3.29552 4.11719 5.93212 4.11719 9.14757V18.0311C4.11719 21.2496 6.7405 23.8832 9.93975 23.8832H18.8829C22.0851 23.8832 24.7054 21.2466 24.7054 18.0311V9.14697C24.7054 5.92852 22.0851 3.29492 18.8829 3.29492V3.29552Z" fill="white"/>
<path d="M14.4115 10.1026C15.1009 10.1026 15.7749 10.307 16.3481 10.69C16.9213 11.073 17.3681 11.6174 17.6319 12.2544C17.8957 12.8913 17.9648 13.5922 17.8303 14.2683C17.6958 14.9445 17.3638 15.5656 16.8763 16.0531C16.3888 16.5405 15.7677 16.8725 15.0916 17.007C14.4154 17.1415 13.7145 17.0725 13.0776 16.8087C12.4407 16.5448 11.8963 16.0981 11.5133 15.5248C11.1303 14.9516 10.9258 14.2777 10.9258 13.5883C10.9269 12.6642 11.2945 11.7782 11.948 11.1248C12.6015 10.4713 13.4874 10.1037 14.4115 10.1026ZM14.4115 8.23535C13.3528 8.23535 12.3179 8.5493 11.4376 9.13748C10.5573 9.72567 9.87122 10.5617 9.46606 11.5398C9.06091 12.5179 8.95491 13.5942 9.16145 14.6326C9.368 15.671 9.87781 16.6248 10.6264 17.3734C11.3751 18.122 12.3289 18.6318 13.3672 18.8384C14.4056 19.0449 15.4819 18.9389 16.46 18.5338C17.4381 18.1286 18.2742 17.4425 18.8623 16.5622C19.4505 15.6819 19.7645 14.647 19.7645 13.5883C19.7645 12.1686 19.2005 10.8071 18.1966 9.80319C17.1928 8.79932 15.8312 8.23535 14.4115 8.23535Z" fill="white"/>
<path d="M19.3525 9.05848C20.0347 9.05848 20.5878 8.50542 20.5878 7.82318C20.5878 7.14095 20.0347 6.58789 19.3525 6.58789C18.6702 6.58789 18.1172 7.14095 18.1172 7.82318C18.1172 8.50542 18.6702 9.05848 19.3525 9.05848Z" fill="white"/>
<defs>
<linearGradient id="paint0_linear_90_2216" x1="14" y1="0" x2="14" y2="27.1765" gradientUnits="userSpaceOnUse">
<stop stop-color="#484848"/>
<stop offset="1" stop-color="#807138"/>
</linearGradient>
</defs>
</svg>
