<svg width="122" height="122" viewBox="0 0 122 122" fill="none" xmlns="http://www.w3.org/2000/svg">
<path fill-rule="evenodd" clip-rule="evenodd" d="M117.883 47.4249C108.29 45.4865 98.6968 46.4579 89.1036 50.3395C88.515 50.5776 88.2169 51.234 88.4247 51.8338L101.975 90.9624C102.144 91.4509 102.584 91.7638 103.101 91.7638H117.883V47.4249ZM35.0195 2.9025C40.2057 2.9025 44.4099 7.05502 44.4099 12.1776C44.4099 17.3002 40.2057 21.4527 35.0195 21.4527C29.8333 21.4527 25.629 17.3002 25.629 12.1776C25.629 7.05502 29.8333 2.9025 35.0195 2.9025ZM61 9.74712C66.1862 9.74712 70.3904 13.8997 70.3904 19.0222C70.3904 24.1448 66.1862 28.2973 61 28.2973C55.8138 28.2973 51.6096 24.1448 51.6096 19.0222C51.6096 13.8997 55.8138 9.74712 61 9.74712ZM86.9807 2.9025C92.1669 2.9025 96.3712 7.05502 96.3712 12.1776C96.3712 17.3002 92.1669 21.4527 86.9807 21.4527C81.7945 21.4527 77.5903 17.3002 77.5903 12.1776C77.5903 7.05502 81.7945 2.9025 86.9807 2.9025ZM44.9989 70.3809C44.9989 68.5402 45.6413 67.0433 46.9833 65.7816L56.785 56.5653C62.4919 51.1997 67.7638 52.2694 74.4171 54.3755C78.2949 55.6029 82.0671 56.7967 86.4582 57.0772L97.1677 88.0027C95.8755 88.6459 94.5476 89.284 93.1031 89.8735C90.6741 90.8647 88.1045 90.3503 86.248 88.4953L64.8821 67.1424C64.2101 66.474 63.1388 66.4523 62.4409 67.0747C62.4402 67.074 61.7267 67.6671 61.6629 67.7186C59.4745 69.485 55.8066 72.4454 55.8066 77.3427C55.8066 80.1454 54.447 82.4675 52.378 84.1421C50.3865 85.7543 47.7504 86.782 44.9989 87.0956V70.3809ZM35.1305 58.266C36.859 58.7056 38.5391 59.0087 40.2159 59.1855C43.0948 59.489 45.9349 59.4171 48.9663 59.0227L44.54 63.1848C42.5072 65.096 41.4247 67.5899 41.4247 70.3809V88.9852C41.4247 89.9721 42.2248 90.7723 43.2118 90.7723C47.3672 90.7723 51.5643 89.3855 54.626 86.9071C57.4951 84.5846 59.3809 81.3232 59.3809 77.3432C59.3809 74.3759 61.8111 72.1978 63.5103 70.8105L83.7346 91.0225C84.7044 91.9918 85.8189 92.7271 87.0172 93.2163C87.8326 94.0687 88.6459 94.9227 89.4593 95.7767C90.9029 97.2859 90.9905 99.6845 89.4872 101.188C88.0192 102.656 85.5792 102.656 84.1111 101.188C80.1897 97.2666 76.336 93.2533 72.4584 89.2799C71.7722 88.5744 70.6437 88.5587 69.9384 89.2449C69.2328 89.9312 69.2171 91.0596 69.9034 91.765L80.5412 102.672C82.0178 104.148 82.0171 106.571 80.5407 108.048C79.0648 109.524 76.6412 109.524 75.1651 108.048C71.0764 103.959 67.0602 99.7874 63.0177 95.6454C62.3315 94.9398 61.203 94.9243 60.4977 95.6106C59.7921 96.2968 59.7764 97.4253 60.4629 98.1306L71.1007 109.037C72.569 110.506 72.5695 112.945 71.101 114.413C69.682 115.832 67.0082 115.697 65.7249 114.413C61.2852 109.974 56.9242 105.466 52.5355 100.969C51.8493 100.263 50.7208 100.248 50.0155 100.934C49.3101 101.62 49.2944 102.749 49.9807 103.454L60.6183 114.361C61.7017 115.444 61.691 117.234 60.5997 118.306C59.5393 119.341 57.7946 119.377 56.7364 118.319C56.694 118.361 39.2318 100.39 37.6401 98.7585C33.6041 94.6239 30.0089 90.9536 24.7367 88.2791L35.1305 58.266ZM45.4071 47.6565H76.5926V40.1842C76.5926 35.1898 73.7952 30.8176 69.6903 28.5554C67.384 30.6196 64.3302 31.8713 60.9997 31.8713C57.6693 31.8713 54.6155 30.6194 52.3091 28.5554C48.2043 30.8176 45.4069 35.1898 45.4069 40.1842V47.6565H45.4071ZM80.1668 40.8119V40.1842C80.1668 34.6168 77.4347 29.6629 73.2445 26.5934C74.4595 24.5518 76.2061 22.8595 78.2901 21.711C80.5962 23.7752 83.6503 25.0269 86.9805 25.0269C90.311 25.0269 93.3648 23.7752 95.6711 21.711C99.776 23.973 102.573 28.3455 102.573 33.3396V40.8119H80.1668ZM19.4266 40.8119V33.3396C19.4266 28.3452 22.2238 23.973 26.3289 21.711C28.6352 23.7752 31.689 25.0269 35.0195 25.0269C38.3499 25.0269 41.4035 23.7752 43.7098 21.711C45.7936 22.8595 47.5404 24.5518 48.7554 26.5934C44.5652 29.6629 41.8331 34.6168 41.8331 40.1842V40.8119H19.4266ZM4.117 47.4249V91.764H18.8993C19.4161 91.764 19.856 91.4509 20.0249 90.9627L33.5755 51.834C33.7833 51.234 33.4852 50.5778 32.8966 50.3398C23.3034 46.4582 13.7102 45.4865 4.117 47.4249Z" fill="#C0C0C0"/>
</svg>
