<svg width="159" height="122" viewBox="0 0 159 122" fill="none" xmlns="http://www.w3.org/2000/svg">
<path d="M37.1798 98.1204C35.0619 98.1204 33.0731 97.2948 31.5829 95.7993L2.57233 66.7888C1.07946 65.3012 0.253906 63.3124 0.253906 61.1945C0.253906 59.0765 1.07946 57.0878 2.57496 55.5976L31.5856 26.587C33.0731 25.0941 35.0619 24.2685 37.1798 24.2685C41.5424 24.2685 45.0925 27.8187 45.0925 32.1812C45.0925 34.2992 44.267 36.2879 42.7715 37.7782L19.3552 61.1945L42.7741 84.6134C44.2696 86.101 45.0925 88.0897 45.0925 90.2077C45.0925 94.5702 41.5424 98.1204 37.1798 98.1204Z" fill="#FFD32A"/>
<path d="M121.585 100.757C117.222 100.757 113.672 97.207 113.672 92.8444C113.672 90.7265 114.497 88.7377 115.993 87.2475L139.409 63.8312L115.99 40.4123C114.497 38.9194 113.672 36.9307 113.672 34.818C113.672 30.4554 117.222 26.9053 121.585 26.9053C123.703 26.9053 125.691 27.7308 127.181 29.2263L156.192 58.2369C157.688 59.7298 158.511 61.7185 158.511 63.8312C158.511 65.9492 157.685 67.9379 156.189 69.4281L127.179 98.4387C125.691 99.9342 123.703 100.757 121.585 100.757Z" fill="#FFD32A"/>
<path d="M55.6432 121.858C51.2806 121.858 47.7305 118.308 47.7305 113.946C47.7305 112.896 47.9362 111.87 48.3371 110.899L95.8159 5.39131C97.0556 2.43724 99.9226 0.530273 103.119 0.530273C107.482 0.530273 111.032 4.08044 111.032 8.44297C111.032 9.49272 110.826 10.5187 110.425 11.4894L62.9466 116.997C61.7069 119.951 58.8399 121.858 55.6432 121.858Z" fill="#FFD32A"/>
</svg>
