<svg width="222" height="223" viewBox="0 0 222 223" fill="none" xmlns="http://www.w3.org/2000/svg">
<path d="M50.6106 73.5995L53.4482 76.4371C44.4383 85.9169 38.4949 97.8924 36.3935 110.801C34.2922 123.709 36.1303 136.952 41.6682 148.8L18.1568 125.288C19.1375 123.625 19.4778 121.661 19.1141 119.765C18.7504 117.869 17.7075 116.17 16.1811 114.988C14.6546 113.805 12.7493 113.22 10.8223 113.342C8.89528 113.464 7.07888 114.284 5.71357 115.65C4.34825 117.015 3.52775 118.832 3.40586 120.759C3.28397 122.686 3.86906 124.591 5.05146 126.117C6.23386 127.644 7.93239 128.687 9.82867 129.05C11.725 129.414 13.6888 129.074 15.3521 128.093L49.2083 161.949L46.4035 164.754C46.0316 165.126 45.8226 165.63 45.8226 166.156C45.8226 166.682 46.0316 167.187 46.4035 167.559L54.8178 175.973C55.1897 176.345 55.6941 176.554 56.2201 176.554C56.7461 176.554 57.2506 176.345 57.6225 175.973L60.4273 173.168L94.2834 207.024C93.3028 208.688 92.9625 210.652 93.3262 212.548C93.6899 214.444 94.7328 216.143 96.2592 217.325C97.7857 218.507 99.691 219.093 101.618 218.971C103.545 218.849 105.361 218.028 106.727 216.663C108.092 215.298 108.913 213.481 109.034 211.554C109.156 209.627 108.571 207.722 107.389 206.195C106.206 204.669 104.508 203.626 102.612 203.262C100.715 202.899 98.7515 203.239 97.0882 204.22L73.5771 180.709C85.4252 186.246 98.6674 188.085 111.576 185.983C124.484 183.882 136.46 177.938 145.94 168.929L148.777 171.766C149.149 172.138 149.653 172.347 150.179 172.347C150.705 172.347 151.21 172.138 151.582 171.766L159.996 163.352C160.368 162.98 160.577 162.475 160.577 161.949C160.577 161.423 160.368 160.919 159.996 160.547L151.582 152.133C151.21 151.761 150.705 151.552 150.179 151.552C149.653 151.552 149.149 151.761 148.777 152.133L140.363 160.547C139.991 160.919 139.782 161.423 139.782 161.949C139.782 162.475 139.991 162.98 140.363 163.352L143.135 166.124C132.528 176.167 118.675 182.08 104.085 182.79C89.4947 183.5 75.1328 178.961 63.601 169.995L66.0368 167.559C66.4087 167.187 66.6177 166.682 66.6177 166.156C66.6177 165.63 66.4087 165.126 66.0368 164.754L57.6225 156.34C57.2506 155.968 56.7461 155.759 56.2201 155.759C55.6941 155.759 55.1897 155.968 54.8178 156.34L52.382 158.776C43.4157 147.244 38.8765 132.882 39.5866 118.292C40.2967 103.702 46.2092 89.8484 56.2529 79.2418L59.0249 82.0138C59.3968 82.3857 59.9013 82.5947 60.4273 82.5947C60.9533 82.5947 61.4577 82.3857 61.8296 82.0138L70.2439 73.5995C70.6158 73.2276 70.8248 72.7231 70.8248 72.1971C70.8248 71.6711 70.6158 71.1667 70.2439 70.7948L61.8296 62.3805C61.4577 62.0086 60.9533 61.7996 60.4273 61.7996C59.9013 61.7996 59.3968 62.0086 59.0249 62.3805L50.6106 70.7948C50.2387 71.1667 50.0297 71.6711 50.0297 72.1971C50.0297 72.7231 50.2387 73.2276 50.6106 73.5995Z" fill="#FFD32A"/>
<path d="M64.153 150.103C64.0116 150.527 64.0175 150.986 64.1698 151.406C64.322 151.826 64.6117 152.183 64.9918 152.418C65.3719 152.653 65.8202 152.752 66.264 152.701C66.7078 152.649 67.1212 152.449 67.4371 152.133L112.888 106.682C113.159 106.41 113.346 106.066 113.426 105.69C113.505 105.315 113.474 104.924 113.336 104.566C112.667 102.869 112.604 100.994 113.156 99.2562C113.708 97.5183 114.842 96.0236 116.367 95.0237C117.892 94.0238 119.715 93.5798 121.529 93.7664C123.342 93.953 125.037 94.7589 126.326 96.0483C127.616 97.3377 128.421 99.032 128.608 100.846C128.795 102.66 128.351 104.483 127.351 106.008C126.351 107.533 124.856 108.667 123.118 109.219C121.38 109.771 119.505 109.707 117.809 109.039C117.45 108.9 117.06 108.869 116.684 108.949C116.309 109.028 115.964 109.215 115.693 109.486L70.2418 154.937C69.9258 155.253 69.7257 155.667 69.674 156.11C69.6222 156.554 69.7219 157.003 69.9568 157.383C70.1917 157.763 70.5481 158.052 70.9682 158.205C71.3883 158.357 71.8475 158.363 72.2713 158.221L152.207 131.576C152.499 131.479 152.764 131.315 152.982 131.097C153.2 130.879 153.364 130.614 153.461 130.322L163.666 99.7093L122.665 58.7089L92.0527 68.9131C91.7606 69.0106 91.4952 69.1747 91.2774 69.3924C91.0597 69.6101 90.8956 69.8756 90.7981 70.1677L64.153 150.103Z" fill="#FFD32A"/>
<path d="M122.132 52.5643L169.812 100.245C170.587 101.02 171.843 101.02 172.617 100.245L181.031 91.8308C181.806 91.0563 181.806 89.8006 181.031 89.0261L133.351 41.3453C132.576 40.5707 131.32 40.5708 130.546 41.3453L122.132 49.7595C121.357 50.534 121.357 51.7898 122.132 52.5643Z" fill="#FFD32A"/>
<path d="M190.848 73.5994C191.22 73.2274 191.429 72.723 191.429 72.197C191.429 71.671 191.22 71.1666 190.848 70.7946L151.581 31.5281C151.209 31.1562 150.705 30.9472 150.179 30.9472C149.653 30.9472 149.149 31.1561 148.777 31.5281L138.96 41.3447L181.031 83.416L190.848 73.5994Z" fill="#FFD32A"/>
</svg>
