<svg width="35" height="35" viewBox="0 0 35 35" fill="none" xmlns="http://www.w3.org/2000/svg">
<circle cx="17.1352" cy="17.1352" r="17.1352" fill="black"/>
<path d="M17.4832 9.65612C17.4837 9.85629 17.5635 10.0481 17.7051 10.1896C17.8466 10.3312 18.0384 10.411 18.2386 10.4116L22.8383 10.4142L9.13031 24.1222C8.98821 24.2643 8.90838 24.457 8.90838 24.658C8.90838 24.859 8.98821 25.0517 9.13031 25.1938C9.27241 25.3359 9.46514 25.4157 9.66609 25.4157C9.86705 25.4157 10.0598 25.3359 10.2019 25.1938L23.9099 11.4858L23.9125 16.0855C23.9273 16.2758 24.0132 16.4535 24.1533 16.5831C24.2933 16.7127 24.4771 16.7848 24.668 16.7848C24.8588 16.7848 25.0426 16.7127 25.1827 16.5831C25.3227 16.4535 25.4087 16.2758 25.4234 16.0855L25.4234 9.65612C25.4238 9.55609 25.4044 9.45698 25.3664 9.36448C25.3283 9.27199 25.2722 9.18796 25.2015 9.11723C25.1308 9.0465 25.0468 8.99048 24.9543 8.95239C24.8618 8.9143 24.7627 8.8949 24.6626 8.89531L18.2332 8.89531C18.0331 8.89732 17.8418 8.97846 17.7013 9.12101C17.5607 9.26356 17.4823 9.45594 17.4832 9.65612Z" fill="white"/>
</svg>
