<svg xmlns="http://www.w3.org/2000/svg" width="72" height="72" fill="none"><path fill="url(#a)" d="M35.75 0A35.75 35.75 0 1 0 71.5 35.75 35.79 35.79 0 0 0 35.75 0m15.298 29.923-16.25 16.25a3.25 3.25 0 0 1-4.596 0l-9.75-9.75a3.252 3.252 0 0 1 1.027-5.346 3.25 3.25 0 0 1 3.569.75L32.5 39.28l13.952-13.952a3.25 3.25 0 0 1 4.596 4.596"/><defs><linearGradient id="a" x1="35.75" x2="35.75" y1="0" y2="71.5" gradientUnits="userSpaceOnUse"><stop stop-color="#FFCD0C"/><stop offset="1" stop-color="#B69000"/></linearGradient></defs></svg>