<svg width="270" height="270" viewBox="0 0 270 270" fill="none" xmlns="http://www.w3.org/2000/svg">
<path d="M212.715 115.883L232.639 156.484C234.848 160.973 233.492 166.586 228.978 169.515L216.683 177.381C211.492 180.664 204.731 178.652 202.089 173.275L182.904 134.166C167.148 143.667 154.652 154.864 148.911 172.193L149.233 172.743C152.615 178.569 150.637 185.294 145.432 188.497C140.018 191.759 133.007 190.011 129.771 184.614L114.532 159.409C106.559 160.41 98.6975 156.69 94.4808 149.671C90.2211 142.66 90.6041 133.947 95.1823 127.405L95.1994 127.38L79.9611 102.175C76.6897 96.708 78.4574 89.7529 83.8612 86.488C88.9336 83.4569 95.9505 84.5377 99.7458 90.7431L99.8769 90.9792L99.9019 90.9963C112.081 93.061 123.891 91.0456 135.362 85.9481C135.362 85.9481 135.379 85.9231 135.421 85.9152C144.822 82.0744 147.056 79.8477 176.56 62.2558C186.679 56.1272 199.856 59.4121 206.002 69.5067L217.318 88.3327C222.997 97.6844 220.537 109.429 212.715 115.883ZM99.5571 146.582C102.061 150.746 106.387 153.261 111.014 153.564L98.7166 133.224C96.8152 137.457 97.0361 142.443 99.5571 146.582ZM103.831 97.5256L144.983 165.664C151.024 151.294 161.138 142.01 171.593 134.316L143.957 88.5945C132.308 94.2281 119.379 98.8403 103.831 97.5256ZM188.123 131.028L207.531 170.617C208.514 172.709 211.196 173.65 213.435 172.269L225.729 164.403C227.479 163.29 228.116 161.015 227.198 159.143L207.627 119.257L188.123 131.028Z" fill="#DDDDDD"/>
<path d="M74.586 128.173L62.8443 135.391L56.1317 151.977C54.7421 155.46 50.7719 157.144 47.2634 155.737L27.236 147.627C23.7703 146.212 22.0866 142.242 23.4761 138.759L36.2539 107.232C37.6605 103.724 41.6479 102.015 45.1136 103.43L65.141 111.54C68.6318 112.971 70.3155 116.942 68.9088 120.45L67.9258 122.855L74.3821 125.469C75.5044 125.932 75.7257 127.482 74.586 128.173ZM42.9138 119.362C39.9573 120.419 38.5277 123.692 39.679 126.566C39.7278 126.709 39.818 126.844 39.8839 126.962C39.7406 127.011 39.5973 127.06 39.4375 127.134C36.5889 128.301 35.2347 131.625 36.5529 134.468C37.8065 137.191 41.1336 138.218 43.9064 137.108L52.5958 133.556C53.4223 133.205 53.8099 132.261 53.4837 131.452L49.9311 122.762C48.8046 120.015 45.7269 118.353 42.9138 119.362Z" fill="#DDDDDD"/>
<path d="M119.568 187.755L118.955 190.046L125.119 191.693C126.344 192.066 126.409 193.523 125.62 194.123L115.725 202.016L111.47 217.9C110.593 221.221 107.14 223.221 103.794 222.327L84.6485 217.164C81.3274 216.287 79.3525 212.851 80.229 209.53L88.3431 179.36C89.2367 176.014 92.6478 174.022 95.9936 174.915L115.132 180.037C118.485 180.972 120.477 184.384 119.568 187.755ZM106.468 194.815L97.1165 192.311C95.7196 191.943 94.4882 193.263 94.9425 194.635L97.7624 202.788C98.1855 203.992 99.6994 204.404 100.649 203.55L107.18 197.902C108.264 196.957 107.865 195.182 106.468 194.815Z" fill="#DDDDDD"/>
<path d="M77.2863 180.638L68.2069 183.85L61.1696 194.208C59.7026 196.356 56.7426 196.935 54.5699 195.451L42.0718 186.989C39.8985 185.505 39.3362 182.52 40.8032 180.372L54.1611 160.706C55.6623 158.508 58.6225 157.928 60.7952 159.412L73.2762 167.899C75.4496 169.384 76.0287 172.343 74.5275 174.541L73.5041 176.04L77.5422 178.761C78.3136 179.288 78.0396 180.424 77.2863 180.638ZM57.601 171.223L51.1358 180.69C50.1977 182.063 50.5539 183.955 51.9278 184.893C53.3017 185.831 55.1933 185.475 56.1314 184.101L62.5966 174.635C63.552 173.236 63.1786 171.369 61.8047 170.431C60.4308 169.493 58.5564 169.824 57.601 171.223Z" fill="#DDDDDD"/>
</svg>
