<svg width="144" height="144" viewBox="0 0 144 144" fill="none" xmlns="http://www.w3.org/2000/svg">
<path d="M12.3962 12.3962H109.81V26.7623H122.037V10.0122C122.037 4.57133 117.604 0.169811 112.194 0.169811H10.012C4.57132 0.169811 0.1698 4.57133 0.1698 10.0122V84.5322C0.1698 89.9728 4.57132 94.405 10.012 94.405H67.1705V77.6548H12.3962V12.3962ZM61.0879 82.9733H61.1185C62.7996 82.9733 64.1751 84.3182 64.1751 86.0299C64.1751 87.711 62.7996 89.0865 61.1185 89.0865C59.4372 89.0865 58.0313 87.711 58.0313 86.0299C58.0313 84.3182 59.4068 82.9733 61.0879 82.9733Z" fill="#C0C0C0"/>
<path d="M38.2244 114.578H33.7618C32.0808 114.578 30.7052 115.954 30.7052 117.635C30.7052 119.316 32.0808 120.692 33.7618 120.692H67.1705V100.518H47.7306C49.1365 104.308 47.486 107.64 38.2244 114.578Z" fill="#C0C0C0"/>
<path d="M131.604 32.8755H85.5101C78.755 32.8755 73.2837 38.3468 73.2837 45.1019V131.604C73.2837 138.359 78.755 143.83 85.5101 143.83H131.604C138.359 143.83 143.83 138.359 143.83 131.604V45.1019C143.83 38.3468 138.359 32.8755 131.604 32.8755ZM110.666 133.101H106.448C104.736 133.101 103.391 131.726 103.391 130.045C103.391 128.333 104.736 126.988 106.448 126.988H110.666C112.378 126.988 113.723 128.333 113.723 130.045C113.723 131.726 112.378 133.101 110.666 133.101ZM136.189 119.286H80.9558V45.4381C80.9558 43.329 82.6675 41.5869 84.7766 41.5869H132.337C134.446 41.5869 136.189 43.329 136.189 45.4381V119.286Z" fill="#C0C0C0"/>
<path d="M62.8912 31.3778L45.4991 18.4178C44.3988 17.6231 42.9011 17.6231 41.8313 18.4178L24.4696 31.3778C23.6751 31.9586 23.2165 32.8755 23.2165 33.823C23.2165 34.8012 23.6751 35.6875 24.4696 36.2683L41.8313 49.2285C42.3815 49.6256 43.0233 49.8396 43.6652 49.8396C44.3072 49.8396 44.9489 49.6256 45.4991 49.2285L62.8912 36.2683C63.6859 35.7181 64.1445 34.8012 64.1445 33.823C64.1445 32.8755 63.6859 31.9586 62.8912 31.3778Z" fill="#C0C0C0"/>
<path d="M58.3063 47.3028L49.1671 54.1189C47.4554 55.3417 45.5909 55.9528 43.6652 55.9528C41.7395 55.9528 39.8445 55.3417 38.255 54.1801L29.0241 47.3028L24.4392 50.6956C23.6751 51.2763 23.2165 52.1933 23.2165 53.1408C23.2165 54.1189 23.6751 55.0359 24.4392 55.6167L41.8313 68.5766C42.3815 68.974 43.0233 69.1574 43.6652 69.1574C44.3072 69.1574 44.9489 68.974 45.4991 68.5766L62.9218 55.6167C63.6859 55.0359 64.1445 54.1189 64.1445 53.1714C64.1445 52.1933 63.6859 51.2763 62.8912 50.6956L58.3063 47.3028Z" fill="#C0C0C0"/>
<path d="M107.034 81.9144C107.927 82.5806 109.152 82.5811 110.046 81.9159L123.633 71.805C124.987 70.7971 124.987 68.7682 123.633 67.76L110.046 57.6494C109.152 56.984 107.927 56.9847 107.034 57.6509L93.4761 67.7617C92.1242 68.7699 92.1242 70.7954 93.4761 71.8036L107.034 81.9144Z" fill="#C0C0C0"/>
<path d="M119.469 82.5453L113.692 86.8246C112.194 87.925 110.421 88.5363 108.557 88.5363C106.662 88.5363 104.889 87.925 103.391 86.8246L97.6448 82.5453L92.4181 86.4273C91.5927 87.0386 91.5927 88.2612 92.4181 88.9031L107.609 100.213C108.159 100.61 108.924 100.61 109.474 100.213L124.696 88.9031C125.521 88.2612 125.521 87.0386 124.696 86.4273L119.469 82.5453Z" fill="#C0C0C0"/>
</svg>
